%TF.GenerationSoftware,KiCad,Pcbnew,8.0.3+1*%
%TF.CreationDate,2024-06-24T22:52:18-04:00*%
%TF.ProjectId,RP2040_ZERO_REV,52503230-3430-45f5-9a45-524f5f524556,rev?*%
%TF.SameCoordinates,Original*%
%TF.FileFunction,Drillmap*%
%TF.FilePolarity,Positive*%
%FSLAX45Y45*%
G04 Gerber Fmt 4.5, Leading zero omitted, Abs format (unit mm)*
G04 Created by KiCad (PCBNEW 8.0.3+1) date 2024-06-24 22:52:18*
%MOMM*%
%LPD*%
G01*
G04 APERTURE LIST*
%ADD10C,0.050000*%
%ADD11C,0.200000*%
%ADD12C,0.100000*%
G04 APERTURE END LIST*
D10*
X15240000Y-8980500D02*
G75*
G02*
X15240000Y-8725500I0J127500D01*
G01*
X16764000Y-9995500D02*
G75*
G02*
X16764000Y-10250500I0J-127500D01*
G01*
X16764000Y-8979500D02*
G75*
G02*
X16764000Y-9234500I0J-127500D01*
G01*
X15240000Y-7710500D02*
G75*
G02*
X15240000Y-7455500I0J127500D01*
G01*
X15240000Y-9996500D02*
G75*
G02*
X15240000Y-9741500I0J127500D01*
G01*
X15240000Y-8218500D02*
G75*
G02*
X15240000Y-7963500I0J127500D01*
G01*
X16764000Y-7456500D02*
G75*
G02*
X16764000Y-7711500I0J-127500D01*
G01*
X15240000Y-9742500D02*
G75*
G02*
X15240000Y-9487500I0J127500D01*
G01*
X15240000Y-7964500D02*
G75*
G02*
X15240000Y-7709500I0J127500D01*
G01*
X16764000Y-7201500D02*
X15240000Y-7201500D01*
X15240000Y-9488500D02*
G75*
G02*
X15240000Y-9233500I0J127500D01*
G01*
X15240000Y-8726500D02*
G75*
G02*
X15240000Y-8471500I0J127500D01*
G01*
X15240000Y-10250500D02*
G75*
G02*
X15240000Y-9995500I0J127500D01*
G01*
X16764000Y-7964500D02*
G75*
G02*
X16764000Y-8219500I0J-127500D01*
G01*
X16764000Y-8471500D02*
G75*
G02*
X16764000Y-8726500I0J-127500D01*
G01*
X15240000Y-9234500D02*
G75*
G02*
X15240000Y-8979500I0J127500D01*
G01*
X16764000Y-9741500D02*
G75*
G02*
X16764000Y-9996500I0J-127500D01*
G01*
X15240000Y-8472500D02*
G75*
G02*
X15240000Y-8217500I0J127500D01*
G01*
X16764000Y-9233500D02*
G75*
G02*
X16764000Y-9488500I0J-127500D01*
G01*
X16764000Y-7201500D02*
G75*
G02*
X16764000Y-7456500I0J-127500D01*
G01*
X16764000Y-8217500D02*
G75*
G02*
X16764000Y-8472500I0J-127500D01*
G01*
X15240000Y-10250500D02*
X16764000Y-10250500D01*
X16764000Y-9487500D02*
G75*
G02*
X16764000Y-9742500I0J-127500D01*
G01*
X16764000Y-8725500D02*
G75*
G02*
X16764000Y-8980500I0J-127500D01*
G01*
X16764000Y-7709500D02*
G75*
G02*
X16764000Y-7964500I0J-127500D01*
G01*
X15240000Y-7456500D02*
G75*
G02*
X15240000Y-7201500I0J127500D01*
G01*
D11*
D12*
X15876500Y-8509000D02*
X15886500Y-8519000D01*
X15886500Y-8509000D02*
X15876500Y-8519000D01*
X15887500Y-8733500D02*
X15897500Y-8743500D01*
X15897500Y-8733500D02*
X15887500Y-8743500D01*
X15887500Y-8835500D02*
X15897500Y-8845500D01*
X15897500Y-8835500D02*
X15887500Y-8845500D01*
X15911000Y-8358500D02*
X15921000Y-8368500D01*
X15921000Y-8358500D02*
X15911000Y-8368500D01*
X16106000Y-8465500D02*
X16116000Y-8475500D01*
X16116000Y-8465500D02*
X16106000Y-8475500D01*
X16219259Y-8239259D02*
X16229259Y-8249259D01*
X16229259Y-8239259D02*
X16219259Y-8249259D01*
X16267500Y-8129500D02*
X16277500Y-8139500D01*
X16277500Y-8129500D02*
X16267500Y-8139500D01*
X16357384Y-8086174D02*
X16367384Y-8096174D01*
X16367384Y-8086174D02*
X16357384Y-8096174D01*
X15309500Y-9683405D02*
G75*
G02*
X15280500Y-9683405I-14500J0D01*
G01*
X15280500Y-9683405D02*
G75*
G02*
X15309500Y-9683405I14500J0D01*
G01*
X15330022Y-9969109D02*
G75*
G02*
X15301022Y-9969109I-14500J0D01*
G01*
X15301022Y-9969109D02*
G75*
G02*
X15330022Y-9969109I14500J0D01*
G01*
X15333819Y-8736914D02*
G75*
G02*
X15304819Y-8736914I-14500J0D01*
G01*
X15304819Y-8736914D02*
G75*
G02*
X15333819Y-8736914I14500J0D01*
G01*
X15339223Y-8196219D02*
G75*
G02*
X15310223Y-8196219I-14500J0D01*
G01*
X15310223Y-8196219D02*
G75*
G02*
X15339223Y-8196219I14500J0D01*
G01*
X15357500Y-7695000D02*
G75*
G02*
X15328500Y-7695000I-14500J0D01*
G01*
X15328500Y-7695000D02*
G75*
G02*
X15357500Y-7695000I14500J0D01*
G01*
X15365500Y-7947000D02*
G75*
G02*
X15336500Y-7947000I-14500J0D01*
G01*
X15336500Y-7947000D02*
G75*
G02*
X15365500Y-7947000I14500J0D01*
G01*
X15373623Y-8963908D02*
G75*
G02*
X15344623Y-8963908I-14500J0D01*
G01*
X15344623Y-8963908D02*
G75*
G02*
X15373623Y-8963908I14500J0D01*
G01*
X15383785Y-9309316D02*
G75*
G02*
X15354785Y-9309316I-14500J0D01*
G01*
X15354785Y-9309316D02*
G75*
G02*
X15383785Y-9309316I14500J0D01*
G01*
X15388727Y-8330576D02*
G75*
G02*
X15359727Y-8330576I-14500J0D01*
G01*
X15359727Y-8330576D02*
G75*
G02*
X15388727Y-8330576I14500J0D01*
G01*
X15389147Y-7401647D02*
G75*
G02*
X15360147Y-7401647I-14500J0D01*
G01*
X15360147Y-7401647D02*
G75*
G02*
X15389147Y-7401647I14500J0D01*
G01*
X15397500Y-7837000D02*
G75*
G02*
X15368500Y-7837000I-14500J0D01*
G01*
X15368500Y-7837000D02*
G75*
G02*
X15397500Y-7837000I14500J0D01*
G01*
X15420000Y-9505647D02*
G75*
G02*
X15391000Y-9505647I-14500J0D01*
G01*
X15391000Y-9505647D02*
G75*
G02*
X15420000Y-9505647I14500J0D01*
G01*
X15449647Y-8939000D02*
G75*
G02*
X15420647Y-8939000I-14500J0D01*
G01*
X15420647Y-8939000D02*
G75*
G02*
X15449647Y-8939000I14500J0D01*
G01*
X15451548Y-8439964D02*
G75*
G02*
X15422548Y-8439964I-14500J0D01*
G01*
X15422548Y-8439964D02*
G75*
G02*
X15451548Y-8439964I14500J0D01*
G01*
X15460000Y-7500500D02*
G75*
G02*
X15431000Y-7500500I-14500J0D01*
G01*
X15431000Y-7500500D02*
G75*
G02*
X15460000Y-7500500I14500J0D01*
G01*
X15465500Y-8088000D02*
G75*
G02*
X15436500Y-8088000I-14500J0D01*
G01*
X15436500Y-8088000D02*
G75*
G02*
X15465500Y-8088000I14500J0D01*
G01*
X15469500Y-9849488D02*
G75*
G02*
X15440500Y-9849488I-14500J0D01*
G01*
X15440500Y-9849488D02*
G75*
G02*
X15469500Y-9849488I14500J0D01*
G01*
X15474500Y-8651066D02*
G75*
G02*
X15445500Y-8651066I-14500J0D01*
G01*
X15445500Y-8651066D02*
G75*
G02*
X15474500Y-8651066I14500J0D01*
G01*
X15477159Y-8249302D02*
G75*
G02*
X15448159Y-8249302I-14500J0D01*
G01*
X15448159Y-8249302D02*
G75*
G02*
X15477159Y-8249302I14500J0D01*
G01*
X15478931Y-10050500D02*
G75*
G02*
X15449931Y-10050500I-14500J0D01*
G01*
X15449931Y-10050500D02*
G75*
G02*
X15478931Y-10050500I14500J0D01*
G01*
X15506500Y-9504000D02*
G75*
G02*
X15477500Y-9504000I-14500J0D01*
G01*
X15477500Y-9504000D02*
G75*
G02*
X15506500Y-9504000I14500J0D01*
G01*
X15517500Y-7564760D02*
G75*
G02*
X15488500Y-7564760I-14500J0D01*
G01*
X15488500Y-7564760D02*
G75*
G02*
X15517500Y-7564760I14500J0D01*
G01*
X15544670Y-7762620D02*
G75*
G02*
X15515670Y-7762620I-14500J0D01*
G01*
X15515670Y-7762620D02*
G75*
G02*
X15544670Y-7762620I14500J0D01*
G01*
X15548500Y-7412000D02*
G75*
G02*
X15519500Y-7412000I-14500J0D01*
G01*
X15519500Y-7412000D02*
G75*
G02*
X15548500Y-7412000I14500J0D01*
G01*
X15572663Y-7837563D02*
G75*
G02*
X15543663Y-7837563I-14500J0D01*
G01*
X15543663Y-7837563D02*
G75*
G02*
X15572663Y-7837563I14500J0D01*
G01*
X15629500Y-9506500D02*
G75*
G02*
X15600500Y-9506500I-14500J0D01*
G01*
X15600500Y-9506500D02*
G75*
G02*
X15629500Y-9506500I14500J0D01*
G01*
X15633500Y-9286000D02*
G75*
G02*
X15604500Y-9286000I-14500J0D01*
G01*
X15604500Y-9286000D02*
G75*
G02*
X15633500Y-9286000I14500J0D01*
G01*
X15644500Y-8793000D02*
G75*
G02*
X15615500Y-8793000I-14500J0D01*
G01*
X15615500Y-8793000D02*
G75*
G02*
X15644500Y-8793000I14500J0D01*
G01*
X15685147Y-9723353D02*
G75*
G02*
X15656147Y-9723353I-14500J0D01*
G01*
X15656147Y-9723353D02*
G75*
G02*
X15685147Y-9723353I14500J0D01*
G01*
X15693079Y-7698000D02*
G75*
G02*
X15664079Y-7698000I-14500J0D01*
G01*
X15664079Y-7698000D02*
G75*
G02*
X15693079Y-7698000I14500J0D01*
G01*
X15700500Y-8133000D02*
G75*
G02*
X15671500Y-8133000I-14500J0D01*
G01*
X15671500Y-8133000D02*
G75*
G02*
X15700500Y-8133000I14500J0D01*
G01*
X15702500Y-9968000D02*
G75*
G02*
X15673500Y-9968000I-14500J0D01*
G01*
X15673500Y-9968000D02*
G75*
G02*
X15702500Y-9968000I14500J0D01*
G01*
X15709372Y-9531000D02*
G75*
G02*
X15680372Y-9531000I-14500J0D01*
G01*
X15680372Y-9531000D02*
G75*
G02*
X15709372Y-9531000I14500J0D01*
G01*
X15714500Y-8271361D02*
G75*
G02*
X15685500Y-8271361I-14500J0D01*
G01*
X15685500Y-8271361D02*
G75*
G02*
X15714500Y-8271361I14500J0D01*
G01*
X15714500Y-9884000D02*
G75*
G02*
X15685500Y-9884000I-14500J0D01*
G01*
X15685500Y-9884000D02*
G75*
G02*
X15714500Y-9884000I14500J0D01*
G01*
X15727000Y-8445525D02*
G75*
G02*
X15698000Y-8445525I-14500J0D01*
G01*
X15698000Y-8445525D02*
G75*
G02*
X15727000Y-8445525I14500J0D01*
G01*
X15729500Y-8652976D02*
G75*
G02*
X15700500Y-8652976I-14500J0D01*
G01*
X15700500Y-8652976D02*
G75*
G02*
X15729500Y-8652976I14500J0D01*
G01*
X15748073Y-8034426D02*
G75*
G02*
X15719073Y-8034426I-14500J0D01*
G01*
X15719073Y-8034426D02*
G75*
G02*
X15748073Y-8034426I14500J0D01*
G01*
X15784579Y-10130500D02*
G75*
G02*
X15755579Y-10130500I-14500J0D01*
G01*
X15755579Y-10130500D02*
G75*
G02*
X15784579Y-10130500I14500J0D01*
G01*
X15794021Y-9626437D02*
G75*
G02*
X15765021Y-9626437I-14500J0D01*
G01*
X15765021Y-9626437D02*
G75*
G02*
X15794021Y-9626437I14500J0D01*
G01*
X15807688Y-8612000D02*
G75*
G02*
X15778688Y-8612000I-14500J0D01*
G01*
X15778688Y-8612000D02*
G75*
G02*
X15807688Y-8612000I14500J0D01*
G01*
X15902500Y-9488000D02*
G75*
G02*
X15873500Y-9488000I-14500J0D01*
G01*
X15873500Y-9488000D02*
G75*
G02*
X15902500Y-9488000I14500J0D01*
G01*
X15904500Y-9721000D02*
G75*
G02*
X15875500Y-9721000I-14500J0D01*
G01*
X15875500Y-9721000D02*
G75*
G02*
X15904500Y-9721000I14500J0D01*
G01*
X15916926Y-10036574D02*
G75*
G02*
X15887926Y-10036574I-14500J0D01*
G01*
X15887926Y-10036574D02*
G75*
G02*
X15916926Y-10036574I14500J0D01*
G01*
X15933500Y-9836000D02*
G75*
G02*
X15904500Y-9836000I-14500J0D01*
G01*
X15904500Y-9836000D02*
G75*
G02*
X15933500Y-9836000I14500J0D01*
G01*
X15997500Y-8452024D02*
G75*
G02*
X15968500Y-8452024I-14500J0D01*
G01*
X15968500Y-8452024D02*
G75*
G02*
X15997500Y-8452024I14500J0D01*
G01*
X16000500Y-7832000D02*
G75*
G02*
X15971500Y-7832000I-14500J0D01*
G01*
X15971500Y-7832000D02*
G75*
G02*
X16000500Y-7832000I14500J0D01*
G01*
X16005671Y-8959000D02*
G75*
G02*
X15976671Y-8959000I-14500J0D01*
G01*
X15976671Y-8959000D02*
G75*
G02*
X16005671Y-8959000I14500J0D01*
G01*
X16024000Y-8609532D02*
G75*
G02*
X15995000Y-8609532I-14500J0D01*
G01*
X15995000Y-8609532D02*
G75*
G02*
X16024000Y-8609532I14500J0D01*
G01*
X16041926Y-9595427D02*
G75*
G02*
X16012926Y-9595427I-14500J0D01*
G01*
X16012926Y-9595427D02*
G75*
G02*
X16041926Y-9595427I14500J0D01*
G01*
X16053500Y-9841000D02*
G75*
G02*
X16024500Y-9841000I-14500J0D01*
G01*
X16024500Y-9841000D02*
G75*
G02*
X16053500Y-9841000I14500J0D01*
G01*
X16065428Y-8540074D02*
G75*
G02*
X16036428Y-8540074I-14500J0D01*
G01*
X16036428Y-8540074D02*
G75*
G02*
X16065428Y-8540074I14500J0D01*
G01*
X16070500Y-8721000D02*
G75*
G02*
X16041500Y-8721000I-14500J0D01*
G01*
X16041500Y-8721000D02*
G75*
G02*
X16070500Y-8721000I14500J0D01*
G01*
X16071500Y-10016000D02*
G75*
G02*
X16042500Y-10016000I-14500J0D01*
G01*
X16042500Y-10016000D02*
G75*
G02*
X16071500Y-10016000I14500J0D01*
G01*
X16073535Y-8798941D02*
G75*
G02*
X16044535Y-8798941I-14500J0D01*
G01*
X16044535Y-8798941D02*
G75*
G02*
X16073535Y-8798941I14500J0D01*
G01*
X16086500Y-9721000D02*
G75*
G02*
X16057500Y-9721000I-14500J0D01*
G01*
X16057500Y-9721000D02*
G75*
G02*
X16086500Y-9721000I14500J0D01*
G01*
X16159500Y-10039000D02*
G75*
G02*
X16130500Y-10039000I-14500J0D01*
G01*
X16130500Y-10039000D02*
G75*
G02*
X16159500Y-10039000I14500J0D01*
G01*
X16184500Y-9475000D02*
G75*
G02*
X16155500Y-9475000I-14500J0D01*
G01*
X16155500Y-9475000D02*
G75*
G02*
X16184500Y-9475000I14500J0D01*
G01*
X16254500Y-8953000D02*
G75*
G02*
X16225500Y-8953000I-14500J0D01*
G01*
X16225500Y-8953000D02*
G75*
G02*
X16254500Y-8953000I14500J0D01*
G01*
X16258853Y-9719002D02*
G75*
G02*
X16229853Y-9719002I-14500J0D01*
G01*
X16229853Y-9719002D02*
G75*
G02*
X16258853Y-9719002I14500J0D01*
G01*
X16277500Y-7772000D02*
G75*
G02*
X16248500Y-7772000I-14500J0D01*
G01*
X16248500Y-7772000D02*
G75*
G02*
X16277500Y-7772000I14500J0D01*
G01*
X16304500Y-8354000D02*
G75*
G02*
X16275500Y-8354000I-14500J0D01*
G01*
X16275500Y-8354000D02*
G75*
G02*
X16304500Y-8354000I14500J0D01*
G01*
X16305500Y-8459000D02*
G75*
G02*
X16276500Y-8459000I-14500J0D01*
G01*
X16276500Y-8459000D02*
G75*
G02*
X16305500Y-8459000I14500J0D01*
G01*
X16312500Y-9109000D02*
G75*
G02*
X16283500Y-9109000I-14500J0D01*
G01*
X16283500Y-9109000D02*
G75*
G02*
X16312500Y-9109000I14500J0D01*
G01*
X16321424Y-9920816D02*
G75*
G02*
X16292424Y-9920816I-14500J0D01*
G01*
X16292424Y-9920816D02*
G75*
G02*
X16321424Y-9920816I14500J0D01*
G01*
X16321703Y-8861000D02*
G75*
G02*
X16292703Y-8861000I-14500J0D01*
G01*
X16292703Y-8861000D02*
G75*
G02*
X16321703Y-8861000I14500J0D01*
G01*
X16326500Y-9549000D02*
G75*
G02*
X16297500Y-9549000I-14500J0D01*
G01*
X16297500Y-9549000D02*
G75*
G02*
X16326500Y-9549000I14500J0D01*
G01*
X16331855Y-9841000D02*
G75*
G02*
X16302855Y-9841000I-14500J0D01*
G01*
X16302855Y-9841000D02*
G75*
G02*
X16331855Y-9841000I14500J0D01*
G01*
X16338844Y-9720218D02*
G75*
G02*
X16309844Y-9720218I-14500J0D01*
G01*
X16309844Y-9720218D02*
G75*
G02*
X16338844Y-9720218I14500J0D01*
G01*
X16345724Y-7635476D02*
G75*
G02*
X16316724Y-7635476I-14500J0D01*
G01*
X16316724Y-7635476D02*
G75*
G02*
X16345724Y-7635476I14500J0D01*
G01*
X16358500Y-8535174D02*
G75*
G02*
X16329500Y-8535174I-14500J0D01*
G01*
X16329500Y-8535174D02*
G75*
G02*
X16358500Y-8535174I14500J0D01*
G01*
X16364488Y-7462012D02*
G75*
G02*
X16335488Y-7462012I-14500J0D01*
G01*
X16335488Y-7462012D02*
G75*
G02*
X16364488Y-7462012I14500J0D01*
G01*
X16399500Y-7691976D02*
G75*
G02*
X16370500Y-7691976I-14500J0D01*
G01*
X16370500Y-7691976D02*
G75*
G02*
X16399500Y-7691976I14500J0D01*
G01*
X16413789Y-10024289D02*
G75*
G02*
X16384789Y-10024289I-14500J0D01*
G01*
X16384789Y-10024289D02*
G75*
G02*
X16413789Y-10024289I14500J0D01*
G01*
X16423500Y-8859000D02*
G75*
G02*
X16394500Y-8859000I-14500J0D01*
G01*
X16394500Y-8859000D02*
G75*
G02*
X16423500Y-8859000I14500J0D01*
G01*
X16432922Y-7533275D02*
G75*
G02*
X16403922Y-7533275I-14500J0D01*
G01*
X16403922Y-7533275D02*
G75*
G02*
X16432922Y-7533275I14500J0D01*
G01*
X16438500Y-7813000D02*
G75*
G02*
X16409500Y-7813000I-14500J0D01*
G01*
X16409500Y-7813000D02*
G75*
G02*
X16438500Y-7813000I14500J0D01*
G01*
X16464500Y-9214000D02*
G75*
G02*
X16435500Y-9214000I-14500J0D01*
G01*
X16435500Y-9214000D02*
G75*
G02*
X16464500Y-9214000I14500J0D01*
G01*
X16488289Y-8796789D02*
G75*
G02*
X16459289Y-8796789I-14500J0D01*
G01*
X16459289Y-8796789D02*
G75*
G02*
X16488289Y-8796789I14500J0D01*
G01*
X16490659Y-8144501D02*
G75*
G02*
X16461659Y-8144501I-14500J0D01*
G01*
X16461659Y-8144501D02*
G75*
G02*
X16490659Y-8144501I14500J0D01*
G01*
X16575500Y-7445000D02*
G75*
G02*
X16546500Y-7445000I-14500J0D01*
G01*
X16546500Y-7445000D02*
G75*
G02*
X16575500Y-7445000I14500J0D01*
G01*
X16588500Y-10120000D02*
G75*
G02*
X16559500Y-10120000I-14500J0D01*
G01*
X16559500Y-10120000D02*
G75*
G02*
X16588500Y-10120000I14500J0D01*
G01*
X16617500Y-9955000D02*
G75*
G02*
X16588500Y-9955000I-14500J0D01*
G01*
X16588500Y-9955000D02*
G75*
G02*
X16617500Y-9955000I14500J0D01*
G01*
X16624500Y-9605000D02*
G75*
G02*
X16595500Y-9605000I-14500J0D01*
G01*
X16595500Y-9605000D02*
G75*
G02*
X16624500Y-9605000I14500J0D01*
G01*
X16625500Y-8143000D02*
G75*
G02*
X16596500Y-8143000I-14500J0D01*
G01*
X16596500Y-8143000D02*
G75*
G02*
X16625500Y-8143000I14500J0D01*
G01*
X16650500Y-7643000D02*
G75*
G02*
X16621500Y-7643000I-14500J0D01*
G01*
X16621500Y-7643000D02*
G75*
G02*
X16650500Y-7643000I14500J0D01*
G01*
X16653096Y-9684257D02*
G75*
G02*
X16624096Y-9684257I-14500J0D01*
G01*
X16624096Y-9684257D02*
G75*
G02*
X16653096Y-9684257I14500J0D01*
G01*
X16695500Y-8705471D02*
G75*
G02*
X16666500Y-8705471I-14500J0D01*
G01*
X16666500Y-8705471D02*
G75*
G02*
X16695500Y-8705471I14500J0D01*
G01*
X15657000Y-8501500D02*
X15657000Y-8531500D01*
X15642000Y-8516500D02*
X15672000Y-8516500D01*
X15657170Y-8368830D02*
X15657170Y-8398830D01*
X15642170Y-8383830D02*
X15672170Y-8383830D01*
X15699000Y-7892000D02*
X15699000Y-7922000D01*
X15684000Y-7907000D02*
X15714000Y-7907000D01*
X15781000Y-7549000D02*
X15781000Y-7579000D01*
X15766000Y-7564000D02*
X15796000Y-7564000D01*
X15865500Y-8171500D02*
X15865500Y-8201500D01*
X15850500Y-8186500D02*
X15880500Y-8186500D01*
X15949000Y-7970000D02*
X15949000Y-8000000D01*
X15934000Y-7985000D02*
X15964000Y-7985000D01*
X15955000Y-8182000D02*
X15955000Y-8212000D01*
X15940000Y-8197000D02*
X15970000Y-8197000D01*
X16244670Y-7490670D02*
X16244670Y-7520670D01*
X16229670Y-7505670D02*
X16259670Y-7505670D01*
D11*
X15370777Y-10564484D02*
X15370777Y-10364484D01*
X15370777Y-10364484D02*
X15418396Y-10364484D01*
X15418396Y-10364484D02*
X15446967Y-10374008D01*
X15446967Y-10374008D02*
X15466015Y-10393055D01*
X15466015Y-10393055D02*
X15475539Y-10412103D01*
X15475539Y-10412103D02*
X15485062Y-10450198D01*
X15485062Y-10450198D02*
X15485062Y-10478770D01*
X15485062Y-10478770D02*
X15475539Y-10516865D01*
X15475539Y-10516865D02*
X15466015Y-10535912D01*
X15466015Y-10535912D02*
X15446967Y-10554960D01*
X15446967Y-10554960D02*
X15418396Y-10564484D01*
X15418396Y-10564484D02*
X15370777Y-10564484D01*
X15570777Y-10564484D02*
X15570777Y-10431150D01*
X15570777Y-10469246D02*
X15580301Y-10450198D01*
X15580301Y-10450198D02*
X15589824Y-10440674D01*
X15589824Y-10440674D02*
X15608872Y-10431150D01*
X15608872Y-10431150D02*
X15627920Y-10431150D01*
X15694586Y-10564484D02*
X15694586Y-10431150D01*
X15694586Y-10364484D02*
X15685062Y-10374008D01*
X15685062Y-10374008D02*
X15694586Y-10383531D01*
X15694586Y-10383531D02*
X15704110Y-10374008D01*
X15704110Y-10374008D02*
X15694586Y-10364484D01*
X15694586Y-10364484D02*
X15694586Y-10383531D01*
X15818396Y-10564484D02*
X15799348Y-10554960D01*
X15799348Y-10554960D02*
X15789824Y-10535912D01*
X15789824Y-10535912D02*
X15789824Y-10364484D01*
X15923158Y-10564484D02*
X15904110Y-10554960D01*
X15904110Y-10554960D02*
X15894586Y-10535912D01*
X15894586Y-10535912D02*
X15894586Y-10364484D01*
X16151729Y-10564484D02*
X16151729Y-10364484D01*
X16151729Y-10364484D02*
X16218396Y-10507341D01*
X16218396Y-10507341D02*
X16285062Y-10364484D01*
X16285062Y-10364484D02*
X16285062Y-10564484D01*
X16466015Y-10564484D02*
X16466015Y-10459722D01*
X16466015Y-10459722D02*
X16456491Y-10440674D01*
X16456491Y-10440674D02*
X16437443Y-10431150D01*
X16437443Y-10431150D02*
X16399348Y-10431150D01*
X16399348Y-10431150D02*
X16380301Y-10440674D01*
X16466015Y-10554960D02*
X16446967Y-10564484D01*
X16446967Y-10564484D02*
X16399348Y-10564484D01*
X16399348Y-10564484D02*
X16380301Y-10554960D01*
X16380301Y-10554960D02*
X16370777Y-10535912D01*
X16370777Y-10535912D02*
X16370777Y-10516865D01*
X16370777Y-10516865D02*
X16380301Y-10497817D01*
X16380301Y-10497817D02*
X16399348Y-10488293D01*
X16399348Y-10488293D02*
X16446967Y-10488293D01*
X16446967Y-10488293D02*
X16466015Y-10478770D01*
X16561253Y-10431150D02*
X16561253Y-10631150D01*
X16561253Y-10440674D02*
X16580301Y-10431150D01*
X16580301Y-10431150D02*
X16618396Y-10431150D01*
X16618396Y-10431150D02*
X16637443Y-10440674D01*
X16637443Y-10440674D02*
X16646967Y-10450198D01*
X16646967Y-10450198D02*
X16656491Y-10469246D01*
X16656491Y-10469246D02*
X16656491Y-10526389D01*
X16656491Y-10526389D02*
X16646967Y-10545436D01*
X16646967Y-10545436D02*
X16637443Y-10554960D01*
X16637443Y-10554960D02*
X16618396Y-10564484D01*
X16618396Y-10564484D02*
X16580301Y-10564484D01*
X16580301Y-10564484D02*
X16561253Y-10554960D01*
X16742205Y-10545436D02*
X16751729Y-10554960D01*
X16751729Y-10554960D02*
X16742205Y-10564484D01*
X16742205Y-10564484D02*
X16732682Y-10554960D01*
X16732682Y-10554960D02*
X16742205Y-10545436D01*
X16742205Y-10545436D02*
X16742205Y-10564484D01*
X16742205Y-10440674D02*
X16751729Y-10450198D01*
X16751729Y-10450198D02*
X16742205Y-10459722D01*
X16742205Y-10459722D02*
X16732682Y-10450198D01*
X16732682Y-10450198D02*
X16742205Y-10440674D01*
X16742205Y-10440674D02*
X16742205Y-10459722D01*
D12*
X15100000Y-10888000D02*
X15110000Y-10898000D01*
X15110000Y-10888000D02*
X15100000Y-10898000D01*
D11*
X15408872Y-10784484D02*
X15427920Y-10784484D01*
X15427920Y-10784484D02*
X15446967Y-10794008D01*
X15446967Y-10794008D02*
X15456491Y-10803531D01*
X15456491Y-10803531D02*
X15466015Y-10822579D01*
X15466015Y-10822579D02*
X15475539Y-10860674D01*
X15475539Y-10860674D02*
X15475539Y-10908293D01*
X15475539Y-10908293D02*
X15466015Y-10946389D01*
X15466015Y-10946389D02*
X15456491Y-10965436D01*
X15456491Y-10965436D02*
X15446967Y-10974960D01*
X15446967Y-10974960D02*
X15427920Y-10984484D01*
X15427920Y-10984484D02*
X15408872Y-10984484D01*
X15408872Y-10984484D02*
X15389824Y-10974960D01*
X15389824Y-10974960D02*
X15380301Y-10965436D01*
X15380301Y-10965436D02*
X15370777Y-10946389D01*
X15370777Y-10946389D02*
X15361253Y-10908293D01*
X15361253Y-10908293D02*
X15361253Y-10860674D01*
X15361253Y-10860674D02*
X15370777Y-10822579D01*
X15370777Y-10822579D02*
X15380301Y-10803531D01*
X15380301Y-10803531D02*
X15389824Y-10794008D01*
X15389824Y-10794008D02*
X15408872Y-10784484D01*
X15561253Y-10965436D02*
X15570777Y-10974960D01*
X15570777Y-10974960D02*
X15561253Y-10984484D01*
X15561253Y-10984484D02*
X15551729Y-10974960D01*
X15551729Y-10974960D02*
X15561253Y-10965436D01*
X15561253Y-10965436D02*
X15561253Y-10984484D01*
X15761253Y-10984484D02*
X15646967Y-10984484D01*
X15704110Y-10984484D02*
X15704110Y-10784484D01*
X15704110Y-10784484D02*
X15685062Y-10813055D01*
X15685062Y-10813055D02*
X15666015Y-10832103D01*
X15666015Y-10832103D02*
X15646967Y-10841627D01*
X15885062Y-10784484D02*
X15904110Y-10784484D01*
X15904110Y-10784484D02*
X15923158Y-10794008D01*
X15923158Y-10794008D02*
X15932682Y-10803531D01*
X15932682Y-10803531D02*
X15942205Y-10822579D01*
X15942205Y-10822579D02*
X15951729Y-10860674D01*
X15951729Y-10860674D02*
X15951729Y-10908293D01*
X15951729Y-10908293D02*
X15942205Y-10946389D01*
X15942205Y-10946389D02*
X15932682Y-10965436D01*
X15932682Y-10965436D02*
X15923158Y-10974960D01*
X15923158Y-10974960D02*
X15904110Y-10984484D01*
X15904110Y-10984484D02*
X15885062Y-10984484D01*
X15885062Y-10984484D02*
X15866015Y-10974960D01*
X15866015Y-10974960D02*
X15856491Y-10965436D01*
X15856491Y-10965436D02*
X15846967Y-10946389D01*
X15846967Y-10946389D02*
X15837443Y-10908293D01*
X15837443Y-10908293D02*
X15837443Y-10860674D01*
X15837443Y-10860674D02*
X15846967Y-10822579D01*
X15846967Y-10822579D02*
X15856491Y-10803531D01*
X15856491Y-10803531D02*
X15866015Y-10794008D01*
X15866015Y-10794008D02*
X15885062Y-10784484D01*
X16075539Y-10784484D02*
X16094586Y-10784484D01*
X16094586Y-10784484D02*
X16113634Y-10794008D01*
X16113634Y-10794008D02*
X16123158Y-10803531D01*
X16123158Y-10803531D02*
X16132682Y-10822579D01*
X16132682Y-10822579D02*
X16142205Y-10860674D01*
X16142205Y-10860674D02*
X16142205Y-10908293D01*
X16142205Y-10908293D02*
X16132682Y-10946389D01*
X16132682Y-10946389D02*
X16123158Y-10965436D01*
X16123158Y-10965436D02*
X16113634Y-10974960D01*
X16113634Y-10974960D02*
X16094586Y-10984484D01*
X16094586Y-10984484D02*
X16075539Y-10984484D01*
X16075539Y-10984484D02*
X16056491Y-10974960D01*
X16056491Y-10974960D02*
X16046967Y-10965436D01*
X16046967Y-10965436D02*
X16037443Y-10946389D01*
X16037443Y-10946389D02*
X16027920Y-10908293D01*
X16027920Y-10908293D02*
X16027920Y-10860674D01*
X16027920Y-10860674D02*
X16037443Y-10822579D01*
X16037443Y-10822579D02*
X16046967Y-10803531D01*
X16046967Y-10803531D02*
X16056491Y-10794008D01*
X16056491Y-10794008D02*
X16075539Y-10784484D01*
X16227920Y-10984484D02*
X16227920Y-10851150D01*
X16227920Y-10870198D02*
X16237443Y-10860674D01*
X16237443Y-10860674D02*
X16256491Y-10851150D01*
X16256491Y-10851150D02*
X16285063Y-10851150D01*
X16285063Y-10851150D02*
X16304110Y-10860674D01*
X16304110Y-10860674D02*
X16313634Y-10879722D01*
X16313634Y-10879722D02*
X16313634Y-10984484D01*
X16313634Y-10879722D02*
X16323158Y-10860674D01*
X16323158Y-10860674D02*
X16342205Y-10851150D01*
X16342205Y-10851150D02*
X16370777Y-10851150D01*
X16370777Y-10851150D02*
X16389824Y-10860674D01*
X16389824Y-10860674D02*
X16399348Y-10879722D01*
X16399348Y-10879722D02*
X16399348Y-10984484D01*
X16494586Y-10984484D02*
X16494586Y-10851150D01*
X16494586Y-10870198D02*
X16504110Y-10860674D01*
X16504110Y-10860674D02*
X16523158Y-10851150D01*
X16523158Y-10851150D02*
X16551729Y-10851150D01*
X16551729Y-10851150D02*
X16570777Y-10860674D01*
X16570777Y-10860674D02*
X16580301Y-10879722D01*
X16580301Y-10879722D02*
X16580301Y-10984484D01*
X16580301Y-10879722D02*
X16589824Y-10860674D01*
X16589824Y-10860674D02*
X16608872Y-10851150D01*
X16608872Y-10851150D02*
X16637443Y-10851150D01*
X16637443Y-10851150D02*
X16656491Y-10860674D01*
X16656491Y-10860674D02*
X16666015Y-10879722D01*
X16666015Y-10879722D02*
X16666015Y-10984484D01*
X17056491Y-10774960D02*
X16885063Y-11032103D01*
X17313634Y-10784484D02*
X17332682Y-10784484D01*
X17332682Y-10784484D02*
X17351729Y-10794008D01*
X17351729Y-10794008D02*
X17361253Y-10803531D01*
X17361253Y-10803531D02*
X17370777Y-10822579D01*
X17370777Y-10822579D02*
X17380301Y-10860674D01*
X17380301Y-10860674D02*
X17380301Y-10908293D01*
X17380301Y-10908293D02*
X17370777Y-10946389D01*
X17370777Y-10946389D02*
X17361253Y-10965436D01*
X17361253Y-10965436D02*
X17351729Y-10974960D01*
X17351729Y-10974960D02*
X17332682Y-10984484D01*
X17332682Y-10984484D02*
X17313634Y-10984484D01*
X17313634Y-10984484D02*
X17294587Y-10974960D01*
X17294587Y-10974960D02*
X17285063Y-10965436D01*
X17285063Y-10965436D02*
X17275539Y-10946389D01*
X17275539Y-10946389D02*
X17266015Y-10908293D01*
X17266015Y-10908293D02*
X17266015Y-10860674D01*
X17266015Y-10860674D02*
X17275539Y-10822579D01*
X17275539Y-10822579D02*
X17285063Y-10803531D01*
X17285063Y-10803531D02*
X17294587Y-10794008D01*
X17294587Y-10794008D02*
X17313634Y-10784484D01*
X17466015Y-10965436D02*
X17475539Y-10974960D01*
X17475539Y-10974960D02*
X17466015Y-10984484D01*
X17466015Y-10984484D02*
X17456491Y-10974960D01*
X17456491Y-10974960D02*
X17466015Y-10965436D01*
X17466015Y-10965436D02*
X17466015Y-10984484D01*
X17599348Y-10784484D02*
X17618396Y-10784484D01*
X17618396Y-10784484D02*
X17637444Y-10794008D01*
X17637444Y-10794008D02*
X17646968Y-10803531D01*
X17646968Y-10803531D02*
X17656491Y-10822579D01*
X17656491Y-10822579D02*
X17666015Y-10860674D01*
X17666015Y-10860674D02*
X17666015Y-10908293D01*
X17666015Y-10908293D02*
X17656491Y-10946389D01*
X17656491Y-10946389D02*
X17646968Y-10965436D01*
X17646968Y-10965436D02*
X17637444Y-10974960D01*
X17637444Y-10974960D02*
X17618396Y-10984484D01*
X17618396Y-10984484D02*
X17599348Y-10984484D01*
X17599348Y-10984484D02*
X17580301Y-10974960D01*
X17580301Y-10974960D02*
X17570777Y-10965436D01*
X17570777Y-10965436D02*
X17561253Y-10946389D01*
X17561253Y-10946389D02*
X17551729Y-10908293D01*
X17551729Y-10908293D02*
X17551729Y-10860674D01*
X17551729Y-10860674D02*
X17561253Y-10822579D01*
X17561253Y-10822579D02*
X17570777Y-10803531D01*
X17570777Y-10803531D02*
X17580301Y-10794008D01*
X17580301Y-10794008D02*
X17599348Y-10784484D01*
X17789825Y-10784484D02*
X17808872Y-10784484D01*
X17808872Y-10784484D02*
X17827920Y-10794008D01*
X17827920Y-10794008D02*
X17837444Y-10803531D01*
X17837444Y-10803531D02*
X17846968Y-10822579D01*
X17846968Y-10822579D02*
X17856491Y-10860674D01*
X17856491Y-10860674D02*
X17856491Y-10908293D01*
X17856491Y-10908293D02*
X17846968Y-10946389D01*
X17846968Y-10946389D02*
X17837444Y-10965436D01*
X17837444Y-10965436D02*
X17827920Y-10974960D01*
X17827920Y-10974960D02*
X17808872Y-10984484D01*
X17808872Y-10984484D02*
X17789825Y-10984484D01*
X17789825Y-10984484D02*
X17770777Y-10974960D01*
X17770777Y-10974960D02*
X17761253Y-10965436D01*
X17761253Y-10965436D02*
X17751729Y-10946389D01*
X17751729Y-10946389D02*
X17742206Y-10908293D01*
X17742206Y-10908293D02*
X17742206Y-10860674D01*
X17742206Y-10860674D02*
X17751729Y-10822579D01*
X17751729Y-10822579D02*
X17761253Y-10803531D01*
X17761253Y-10803531D02*
X17770777Y-10794008D01*
X17770777Y-10794008D02*
X17789825Y-10784484D01*
X17923158Y-10784484D02*
X18046968Y-10784484D01*
X18046968Y-10784484D02*
X17980301Y-10860674D01*
X17980301Y-10860674D02*
X18008872Y-10860674D01*
X18008872Y-10860674D02*
X18027920Y-10870198D01*
X18027920Y-10870198D02*
X18037444Y-10879722D01*
X18037444Y-10879722D02*
X18046968Y-10898770D01*
X18046968Y-10898770D02*
X18046968Y-10946389D01*
X18046968Y-10946389D02*
X18037444Y-10965436D01*
X18037444Y-10965436D02*
X18027920Y-10974960D01*
X18027920Y-10974960D02*
X18008872Y-10984484D01*
X18008872Y-10984484D02*
X17951729Y-10984484D01*
X17951729Y-10984484D02*
X17932682Y-10974960D01*
X17932682Y-10974960D02*
X17923158Y-10965436D01*
X18142206Y-10984484D02*
X18180301Y-10984484D01*
X18180301Y-10984484D02*
X18199349Y-10974960D01*
X18199349Y-10974960D02*
X18208872Y-10965436D01*
X18208872Y-10965436D02*
X18227920Y-10936865D01*
X18227920Y-10936865D02*
X18237444Y-10898770D01*
X18237444Y-10898770D02*
X18237444Y-10822579D01*
X18237444Y-10822579D02*
X18227920Y-10803531D01*
X18227920Y-10803531D02*
X18218396Y-10794008D01*
X18218396Y-10794008D02*
X18199349Y-10784484D01*
X18199349Y-10784484D02*
X18161253Y-10784484D01*
X18161253Y-10784484D02*
X18142206Y-10794008D01*
X18142206Y-10794008D02*
X18132682Y-10803531D01*
X18132682Y-10803531D02*
X18123158Y-10822579D01*
X18123158Y-10822579D02*
X18123158Y-10870198D01*
X18123158Y-10870198D02*
X18132682Y-10889246D01*
X18132682Y-10889246D02*
X18142206Y-10898770D01*
X18142206Y-10898770D02*
X18161253Y-10908293D01*
X18161253Y-10908293D02*
X18199349Y-10908293D01*
X18199349Y-10908293D02*
X18218396Y-10898770D01*
X18218396Y-10898770D02*
X18227920Y-10889246D01*
X18227920Y-10889246D02*
X18237444Y-10870198D01*
X18313634Y-10784484D02*
X18313634Y-10822579D01*
X18389825Y-10784484D02*
X18389825Y-10822579D01*
X18685063Y-11060674D02*
X18675539Y-11051150D01*
X18675539Y-11051150D02*
X18656491Y-11022579D01*
X18656491Y-11022579D02*
X18646968Y-11003531D01*
X18646968Y-11003531D02*
X18637444Y-10974960D01*
X18637444Y-10974960D02*
X18627920Y-10927341D01*
X18627920Y-10927341D02*
X18627920Y-10889246D01*
X18627920Y-10889246D02*
X18637444Y-10841627D01*
X18637444Y-10841627D02*
X18646968Y-10813055D01*
X18646968Y-10813055D02*
X18656491Y-10794008D01*
X18656491Y-10794008D02*
X18675539Y-10765436D01*
X18675539Y-10765436D02*
X18685063Y-10755912D01*
X18789825Y-10870198D02*
X18770777Y-10860674D01*
X18770777Y-10860674D02*
X18761253Y-10851150D01*
X18761253Y-10851150D02*
X18751730Y-10832103D01*
X18751730Y-10832103D02*
X18751730Y-10822579D01*
X18751730Y-10822579D02*
X18761253Y-10803531D01*
X18761253Y-10803531D02*
X18770777Y-10794008D01*
X18770777Y-10794008D02*
X18789825Y-10784484D01*
X18789825Y-10784484D02*
X18827920Y-10784484D01*
X18827920Y-10784484D02*
X18846968Y-10794008D01*
X18846968Y-10794008D02*
X18856491Y-10803531D01*
X18856491Y-10803531D02*
X18866015Y-10822579D01*
X18866015Y-10822579D02*
X18866015Y-10832103D01*
X18866015Y-10832103D02*
X18856491Y-10851150D01*
X18856491Y-10851150D02*
X18846968Y-10860674D01*
X18846968Y-10860674D02*
X18827920Y-10870198D01*
X18827920Y-10870198D02*
X18789825Y-10870198D01*
X18789825Y-10870198D02*
X18770777Y-10879722D01*
X18770777Y-10879722D02*
X18761253Y-10889246D01*
X18761253Y-10889246D02*
X18751730Y-10908293D01*
X18751730Y-10908293D02*
X18751730Y-10946389D01*
X18751730Y-10946389D02*
X18761253Y-10965436D01*
X18761253Y-10965436D02*
X18770777Y-10974960D01*
X18770777Y-10974960D02*
X18789825Y-10984484D01*
X18789825Y-10984484D02*
X18827920Y-10984484D01*
X18827920Y-10984484D02*
X18846968Y-10974960D01*
X18846968Y-10974960D02*
X18856491Y-10965436D01*
X18856491Y-10965436D02*
X18866015Y-10946389D01*
X18866015Y-10946389D02*
X18866015Y-10908293D01*
X18866015Y-10908293D02*
X18856491Y-10889246D01*
X18856491Y-10889246D02*
X18846968Y-10879722D01*
X18846968Y-10879722D02*
X18827920Y-10870198D01*
X19104111Y-10984484D02*
X19104111Y-10784484D01*
X19189825Y-10984484D02*
X19189825Y-10879722D01*
X19189825Y-10879722D02*
X19180301Y-10860674D01*
X19180301Y-10860674D02*
X19161253Y-10851150D01*
X19161253Y-10851150D02*
X19132682Y-10851150D01*
X19132682Y-10851150D02*
X19113634Y-10860674D01*
X19113634Y-10860674D02*
X19104111Y-10870198D01*
X19313634Y-10984484D02*
X19294587Y-10974960D01*
X19294587Y-10974960D02*
X19285063Y-10965436D01*
X19285063Y-10965436D02*
X19275539Y-10946389D01*
X19275539Y-10946389D02*
X19275539Y-10889246D01*
X19275539Y-10889246D02*
X19285063Y-10870198D01*
X19285063Y-10870198D02*
X19294587Y-10860674D01*
X19294587Y-10860674D02*
X19313634Y-10851150D01*
X19313634Y-10851150D02*
X19342206Y-10851150D01*
X19342206Y-10851150D02*
X19361253Y-10860674D01*
X19361253Y-10860674D02*
X19370777Y-10870198D01*
X19370777Y-10870198D02*
X19380301Y-10889246D01*
X19380301Y-10889246D02*
X19380301Y-10946389D01*
X19380301Y-10946389D02*
X19370777Y-10965436D01*
X19370777Y-10965436D02*
X19361253Y-10974960D01*
X19361253Y-10974960D02*
X19342206Y-10984484D01*
X19342206Y-10984484D02*
X19313634Y-10984484D01*
X19494587Y-10984484D02*
X19475539Y-10974960D01*
X19475539Y-10974960D02*
X19466015Y-10955912D01*
X19466015Y-10955912D02*
X19466015Y-10784484D01*
X19646968Y-10974960D02*
X19627920Y-10984484D01*
X19627920Y-10984484D02*
X19589825Y-10984484D01*
X19589825Y-10984484D02*
X19570777Y-10974960D01*
X19570777Y-10974960D02*
X19561253Y-10955912D01*
X19561253Y-10955912D02*
X19561253Y-10879722D01*
X19561253Y-10879722D02*
X19570777Y-10860674D01*
X19570777Y-10860674D02*
X19589825Y-10851150D01*
X19589825Y-10851150D02*
X19627920Y-10851150D01*
X19627920Y-10851150D02*
X19646968Y-10860674D01*
X19646968Y-10860674D02*
X19656492Y-10879722D01*
X19656492Y-10879722D02*
X19656492Y-10898770D01*
X19656492Y-10898770D02*
X19561253Y-10917817D01*
X19732682Y-10974960D02*
X19751730Y-10984484D01*
X19751730Y-10984484D02*
X19789825Y-10984484D01*
X19789825Y-10984484D02*
X19808873Y-10974960D01*
X19808873Y-10974960D02*
X19818396Y-10955912D01*
X19818396Y-10955912D02*
X19818396Y-10946389D01*
X19818396Y-10946389D02*
X19808873Y-10927341D01*
X19808873Y-10927341D02*
X19789825Y-10917817D01*
X19789825Y-10917817D02*
X19761253Y-10917817D01*
X19761253Y-10917817D02*
X19742206Y-10908293D01*
X19742206Y-10908293D02*
X19732682Y-10889246D01*
X19732682Y-10889246D02*
X19732682Y-10879722D01*
X19732682Y-10879722D02*
X19742206Y-10860674D01*
X19742206Y-10860674D02*
X19761253Y-10851150D01*
X19761253Y-10851150D02*
X19789825Y-10851150D01*
X19789825Y-10851150D02*
X19808873Y-10860674D01*
X19885063Y-11060674D02*
X19894587Y-11051150D01*
X19894587Y-11051150D02*
X19913634Y-11022579D01*
X19913634Y-11022579D02*
X19923158Y-11003531D01*
X19923158Y-11003531D02*
X19932682Y-10974960D01*
X19932682Y-10974960D02*
X19942206Y-10927341D01*
X19942206Y-10927341D02*
X19942206Y-10889246D01*
X19942206Y-10889246D02*
X19932682Y-10841627D01*
X19932682Y-10841627D02*
X19923158Y-10813055D01*
X19923158Y-10813055D02*
X19913634Y-10794008D01*
X19913634Y-10794008D02*
X19894587Y-10765436D01*
X19894587Y-10765436D02*
X19885063Y-10755912D01*
D12*
X15110000Y-11157000D02*
G75*
G02*
X15081000Y-11157000I-14500J0D01*
G01*
X15081000Y-11157000D02*
G75*
G02*
X15110000Y-11157000I14500J0D01*
G01*
D11*
X15408872Y-11048484D02*
X15427920Y-11048484D01*
X15427920Y-11048484D02*
X15446967Y-11058008D01*
X15446967Y-11058008D02*
X15456491Y-11067531D01*
X15456491Y-11067531D02*
X15466015Y-11086579D01*
X15466015Y-11086579D02*
X15475539Y-11124674D01*
X15475539Y-11124674D02*
X15475539Y-11172293D01*
X15475539Y-11172293D02*
X15466015Y-11210388D01*
X15466015Y-11210388D02*
X15456491Y-11229436D01*
X15456491Y-11229436D02*
X15446967Y-11238960D01*
X15446967Y-11238960D02*
X15427920Y-11248484D01*
X15427920Y-11248484D02*
X15408872Y-11248484D01*
X15408872Y-11248484D02*
X15389824Y-11238960D01*
X15389824Y-11238960D02*
X15380301Y-11229436D01*
X15380301Y-11229436D02*
X15370777Y-11210388D01*
X15370777Y-11210388D02*
X15361253Y-11172293D01*
X15361253Y-11172293D02*
X15361253Y-11124674D01*
X15361253Y-11124674D02*
X15370777Y-11086579D01*
X15370777Y-11086579D02*
X15380301Y-11067531D01*
X15380301Y-11067531D02*
X15389824Y-11058008D01*
X15389824Y-11058008D02*
X15408872Y-11048484D01*
X15561253Y-11229436D02*
X15570777Y-11238960D01*
X15570777Y-11238960D02*
X15561253Y-11248484D01*
X15561253Y-11248484D02*
X15551729Y-11238960D01*
X15551729Y-11238960D02*
X15561253Y-11229436D01*
X15561253Y-11229436D02*
X15561253Y-11248484D01*
X15646967Y-11067531D02*
X15656491Y-11058008D01*
X15656491Y-11058008D02*
X15675539Y-11048484D01*
X15675539Y-11048484D02*
X15723158Y-11048484D01*
X15723158Y-11048484D02*
X15742205Y-11058008D01*
X15742205Y-11058008D02*
X15751729Y-11067531D01*
X15751729Y-11067531D02*
X15761253Y-11086579D01*
X15761253Y-11086579D02*
X15761253Y-11105627D01*
X15761253Y-11105627D02*
X15751729Y-11134198D01*
X15751729Y-11134198D02*
X15637443Y-11248484D01*
X15637443Y-11248484D02*
X15761253Y-11248484D01*
X15856491Y-11248484D02*
X15894586Y-11248484D01*
X15894586Y-11248484D02*
X15913634Y-11238960D01*
X15913634Y-11238960D02*
X15923158Y-11229436D01*
X15923158Y-11229436D02*
X15942205Y-11200865D01*
X15942205Y-11200865D02*
X15951729Y-11162770D01*
X15951729Y-11162770D02*
X15951729Y-11086579D01*
X15951729Y-11086579D02*
X15942205Y-11067531D01*
X15942205Y-11067531D02*
X15932682Y-11058008D01*
X15932682Y-11058008D02*
X15913634Y-11048484D01*
X15913634Y-11048484D02*
X15875539Y-11048484D01*
X15875539Y-11048484D02*
X15856491Y-11058008D01*
X15856491Y-11058008D02*
X15846967Y-11067531D01*
X15846967Y-11067531D02*
X15837443Y-11086579D01*
X15837443Y-11086579D02*
X15837443Y-11134198D01*
X15837443Y-11134198D02*
X15846967Y-11153246D01*
X15846967Y-11153246D02*
X15856491Y-11162770D01*
X15856491Y-11162770D02*
X15875539Y-11172293D01*
X15875539Y-11172293D02*
X15913634Y-11172293D01*
X15913634Y-11172293D02*
X15932682Y-11162770D01*
X15932682Y-11162770D02*
X15942205Y-11153246D01*
X15942205Y-11153246D02*
X15951729Y-11134198D01*
X16075539Y-11048484D02*
X16094586Y-11048484D01*
X16094586Y-11048484D02*
X16113634Y-11058008D01*
X16113634Y-11058008D02*
X16123158Y-11067531D01*
X16123158Y-11067531D02*
X16132682Y-11086579D01*
X16132682Y-11086579D02*
X16142205Y-11124674D01*
X16142205Y-11124674D02*
X16142205Y-11172293D01*
X16142205Y-11172293D02*
X16132682Y-11210388D01*
X16132682Y-11210388D02*
X16123158Y-11229436D01*
X16123158Y-11229436D02*
X16113634Y-11238960D01*
X16113634Y-11238960D02*
X16094586Y-11248484D01*
X16094586Y-11248484D02*
X16075539Y-11248484D01*
X16075539Y-11248484D02*
X16056491Y-11238960D01*
X16056491Y-11238960D02*
X16046967Y-11229436D01*
X16046967Y-11229436D02*
X16037443Y-11210388D01*
X16037443Y-11210388D02*
X16027920Y-11172293D01*
X16027920Y-11172293D02*
X16027920Y-11124674D01*
X16027920Y-11124674D02*
X16037443Y-11086579D01*
X16037443Y-11086579D02*
X16046967Y-11067531D01*
X16046967Y-11067531D02*
X16056491Y-11058008D01*
X16056491Y-11058008D02*
X16075539Y-11048484D01*
X16227920Y-11248484D02*
X16227920Y-11115150D01*
X16227920Y-11134198D02*
X16237443Y-11124674D01*
X16237443Y-11124674D02*
X16256491Y-11115150D01*
X16256491Y-11115150D02*
X16285063Y-11115150D01*
X16285063Y-11115150D02*
X16304110Y-11124674D01*
X16304110Y-11124674D02*
X16313634Y-11143722D01*
X16313634Y-11143722D02*
X16313634Y-11248484D01*
X16313634Y-11143722D02*
X16323158Y-11124674D01*
X16323158Y-11124674D02*
X16342205Y-11115150D01*
X16342205Y-11115150D02*
X16370777Y-11115150D01*
X16370777Y-11115150D02*
X16389824Y-11124674D01*
X16389824Y-11124674D02*
X16399348Y-11143722D01*
X16399348Y-11143722D02*
X16399348Y-11248484D01*
X16494586Y-11248484D02*
X16494586Y-11115150D01*
X16494586Y-11134198D02*
X16504110Y-11124674D01*
X16504110Y-11124674D02*
X16523158Y-11115150D01*
X16523158Y-11115150D02*
X16551729Y-11115150D01*
X16551729Y-11115150D02*
X16570777Y-11124674D01*
X16570777Y-11124674D02*
X16580301Y-11143722D01*
X16580301Y-11143722D02*
X16580301Y-11248484D01*
X16580301Y-11143722D02*
X16589824Y-11124674D01*
X16589824Y-11124674D02*
X16608872Y-11115150D01*
X16608872Y-11115150D02*
X16637443Y-11115150D01*
X16637443Y-11115150D02*
X16656491Y-11124674D01*
X16656491Y-11124674D02*
X16666015Y-11143722D01*
X16666015Y-11143722D02*
X16666015Y-11248484D01*
X17056491Y-11038960D02*
X16885063Y-11296103D01*
X17313634Y-11048484D02*
X17332682Y-11048484D01*
X17332682Y-11048484D02*
X17351729Y-11058008D01*
X17351729Y-11058008D02*
X17361253Y-11067531D01*
X17361253Y-11067531D02*
X17370777Y-11086579D01*
X17370777Y-11086579D02*
X17380301Y-11124674D01*
X17380301Y-11124674D02*
X17380301Y-11172293D01*
X17380301Y-11172293D02*
X17370777Y-11210388D01*
X17370777Y-11210388D02*
X17361253Y-11229436D01*
X17361253Y-11229436D02*
X17351729Y-11238960D01*
X17351729Y-11238960D02*
X17332682Y-11248484D01*
X17332682Y-11248484D02*
X17313634Y-11248484D01*
X17313634Y-11248484D02*
X17294587Y-11238960D01*
X17294587Y-11238960D02*
X17285063Y-11229436D01*
X17285063Y-11229436D02*
X17275539Y-11210388D01*
X17275539Y-11210388D02*
X17266015Y-11172293D01*
X17266015Y-11172293D02*
X17266015Y-11124674D01*
X17266015Y-11124674D02*
X17275539Y-11086579D01*
X17275539Y-11086579D02*
X17285063Y-11067531D01*
X17285063Y-11067531D02*
X17294587Y-11058008D01*
X17294587Y-11058008D02*
X17313634Y-11048484D01*
X17466015Y-11229436D02*
X17475539Y-11238960D01*
X17475539Y-11238960D02*
X17466015Y-11248484D01*
X17466015Y-11248484D02*
X17456491Y-11238960D01*
X17456491Y-11238960D02*
X17466015Y-11229436D01*
X17466015Y-11229436D02*
X17466015Y-11248484D01*
X17599348Y-11048484D02*
X17618396Y-11048484D01*
X17618396Y-11048484D02*
X17637444Y-11058008D01*
X17637444Y-11058008D02*
X17646968Y-11067531D01*
X17646968Y-11067531D02*
X17656491Y-11086579D01*
X17656491Y-11086579D02*
X17666015Y-11124674D01*
X17666015Y-11124674D02*
X17666015Y-11172293D01*
X17666015Y-11172293D02*
X17656491Y-11210388D01*
X17656491Y-11210388D02*
X17646968Y-11229436D01*
X17646968Y-11229436D02*
X17637444Y-11238960D01*
X17637444Y-11238960D02*
X17618396Y-11248484D01*
X17618396Y-11248484D02*
X17599348Y-11248484D01*
X17599348Y-11248484D02*
X17580301Y-11238960D01*
X17580301Y-11238960D02*
X17570777Y-11229436D01*
X17570777Y-11229436D02*
X17561253Y-11210388D01*
X17561253Y-11210388D02*
X17551729Y-11172293D01*
X17551729Y-11172293D02*
X17551729Y-11124674D01*
X17551729Y-11124674D02*
X17561253Y-11086579D01*
X17561253Y-11086579D02*
X17570777Y-11067531D01*
X17570777Y-11067531D02*
X17580301Y-11058008D01*
X17580301Y-11058008D02*
X17599348Y-11048484D01*
X17856491Y-11248484D02*
X17742206Y-11248484D01*
X17799348Y-11248484D02*
X17799348Y-11048484D01*
X17799348Y-11048484D02*
X17780301Y-11077055D01*
X17780301Y-11077055D02*
X17761253Y-11096103D01*
X17761253Y-11096103D02*
X17742206Y-11105627D01*
X18046968Y-11248484D02*
X17932682Y-11248484D01*
X17989825Y-11248484D02*
X17989825Y-11048484D01*
X17989825Y-11048484D02*
X17970777Y-11077055D01*
X17970777Y-11077055D02*
X17951729Y-11096103D01*
X17951729Y-11096103D02*
X17932682Y-11105627D01*
X18218396Y-11115150D02*
X18218396Y-11248484D01*
X18170777Y-11038960D02*
X18123158Y-11181817D01*
X18123158Y-11181817D02*
X18246968Y-11181817D01*
X18313634Y-11048484D02*
X18313634Y-11086579D01*
X18389825Y-11048484D02*
X18389825Y-11086579D01*
X18685063Y-11324674D02*
X18675539Y-11315150D01*
X18675539Y-11315150D02*
X18656491Y-11286579D01*
X18656491Y-11286579D02*
X18646968Y-11267531D01*
X18646968Y-11267531D02*
X18637444Y-11238960D01*
X18637444Y-11238960D02*
X18627920Y-11191341D01*
X18627920Y-11191341D02*
X18627920Y-11153246D01*
X18627920Y-11153246D02*
X18637444Y-11105627D01*
X18637444Y-11105627D02*
X18646968Y-11077055D01*
X18646968Y-11077055D02*
X18656491Y-11058008D01*
X18656491Y-11058008D02*
X18675539Y-11029436D01*
X18675539Y-11029436D02*
X18685063Y-11019912D01*
X18789825Y-11134198D02*
X18770777Y-11124674D01*
X18770777Y-11124674D02*
X18761253Y-11115150D01*
X18761253Y-11115150D02*
X18751730Y-11096103D01*
X18751730Y-11096103D02*
X18751730Y-11086579D01*
X18751730Y-11086579D02*
X18761253Y-11067531D01*
X18761253Y-11067531D02*
X18770777Y-11058008D01*
X18770777Y-11058008D02*
X18789825Y-11048484D01*
X18789825Y-11048484D02*
X18827920Y-11048484D01*
X18827920Y-11048484D02*
X18846968Y-11058008D01*
X18846968Y-11058008D02*
X18856491Y-11067531D01*
X18856491Y-11067531D02*
X18866015Y-11086579D01*
X18866015Y-11086579D02*
X18866015Y-11096103D01*
X18866015Y-11096103D02*
X18856491Y-11115150D01*
X18856491Y-11115150D02*
X18846968Y-11124674D01*
X18846968Y-11124674D02*
X18827920Y-11134198D01*
X18827920Y-11134198D02*
X18789825Y-11134198D01*
X18789825Y-11134198D02*
X18770777Y-11143722D01*
X18770777Y-11143722D02*
X18761253Y-11153246D01*
X18761253Y-11153246D02*
X18751730Y-11172293D01*
X18751730Y-11172293D02*
X18751730Y-11210388D01*
X18751730Y-11210388D02*
X18761253Y-11229436D01*
X18761253Y-11229436D02*
X18770777Y-11238960D01*
X18770777Y-11238960D02*
X18789825Y-11248484D01*
X18789825Y-11248484D02*
X18827920Y-11248484D01*
X18827920Y-11248484D02*
X18846968Y-11238960D01*
X18846968Y-11238960D02*
X18856491Y-11229436D01*
X18856491Y-11229436D02*
X18866015Y-11210388D01*
X18866015Y-11210388D02*
X18866015Y-11172293D01*
X18866015Y-11172293D02*
X18856491Y-11153246D01*
X18856491Y-11153246D02*
X18846968Y-11143722D01*
X18846968Y-11143722D02*
X18827920Y-11134198D01*
X18980301Y-11134198D02*
X18961253Y-11124674D01*
X18961253Y-11124674D02*
X18951730Y-11115150D01*
X18951730Y-11115150D02*
X18942206Y-11096103D01*
X18942206Y-11096103D02*
X18942206Y-11086579D01*
X18942206Y-11086579D02*
X18951730Y-11067531D01*
X18951730Y-11067531D02*
X18961253Y-11058008D01*
X18961253Y-11058008D02*
X18980301Y-11048484D01*
X18980301Y-11048484D02*
X19018396Y-11048484D01*
X19018396Y-11048484D02*
X19037444Y-11058008D01*
X19037444Y-11058008D02*
X19046968Y-11067531D01*
X19046968Y-11067531D02*
X19056491Y-11086579D01*
X19056491Y-11086579D02*
X19056491Y-11096103D01*
X19056491Y-11096103D02*
X19046968Y-11115150D01*
X19046968Y-11115150D02*
X19037444Y-11124674D01*
X19037444Y-11124674D02*
X19018396Y-11134198D01*
X19018396Y-11134198D02*
X18980301Y-11134198D01*
X18980301Y-11134198D02*
X18961253Y-11143722D01*
X18961253Y-11143722D02*
X18951730Y-11153246D01*
X18951730Y-11153246D02*
X18942206Y-11172293D01*
X18942206Y-11172293D02*
X18942206Y-11210388D01*
X18942206Y-11210388D02*
X18951730Y-11229436D01*
X18951730Y-11229436D02*
X18961253Y-11238960D01*
X18961253Y-11238960D02*
X18980301Y-11248484D01*
X18980301Y-11248484D02*
X19018396Y-11248484D01*
X19018396Y-11248484D02*
X19037444Y-11238960D01*
X19037444Y-11238960D02*
X19046968Y-11229436D01*
X19046968Y-11229436D02*
X19056491Y-11210388D01*
X19056491Y-11210388D02*
X19056491Y-11172293D01*
X19056491Y-11172293D02*
X19046968Y-11153246D01*
X19046968Y-11153246D02*
X19037444Y-11143722D01*
X19037444Y-11143722D02*
X19018396Y-11134198D01*
X19294587Y-11248484D02*
X19294587Y-11048484D01*
X19380301Y-11248484D02*
X19380301Y-11143722D01*
X19380301Y-11143722D02*
X19370777Y-11124674D01*
X19370777Y-11124674D02*
X19351730Y-11115150D01*
X19351730Y-11115150D02*
X19323158Y-11115150D01*
X19323158Y-11115150D02*
X19304111Y-11124674D01*
X19304111Y-11124674D02*
X19294587Y-11134198D01*
X19504111Y-11248484D02*
X19485063Y-11238960D01*
X19485063Y-11238960D02*
X19475539Y-11229436D01*
X19475539Y-11229436D02*
X19466015Y-11210388D01*
X19466015Y-11210388D02*
X19466015Y-11153246D01*
X19466015Y-11153246D02*
X19475539Y-11134198D01*
X19475539Y-11134198D02*
X19485063Y-11124674D01*
X19485063Y-11124674D02*
X19504111Y-11115150D01*
X19504111Y-11115150D02*
X19532682Y-11115150D01*
X19532682Y-11115150D02*
X19551730Y-11124674D01*
X19551730Y-11124674D02*
X19561253Y-11134198D01*
X19561253Y-11134198D02*
X19570777Y-11153246D01*
X19570777Y-11153246D02*
X19570777Y-11210388D01*
X19570777Y-11210388D02*
X19561253Y-11229436D01*
X19561253Y-11229436D02*
X19551730Y-11238960D01*
X19551730Y-11238960D02*
X19532682Y-11248484D01*
X19532682Y-11248484D02*
X19504111Y-11248484D01*
X19685063Y-11248484D02*
X19666015Y-11238960D01*
X19666015Y-11238960D02*
X19656492Y-11219912D01*
X19656492Y-11219912D02*
X19656492Y-11048484D01*
X19837444Y-11238960D02*
X19818396Y-11248484D01*
X19818396Y-11248484D02*
X19780301Y-11248484D01*
X19780301Y-11248484D02*
X19761253Y-11238960D01*
X19761253Y-11238960D02*
X19751730Y-11219912D01*
X19751730Y-11219912D02*
X19751730Y-11143722D01*
X19751730Y-11143722D02*
X19761253Y-11124674D01*
X19761253Y-11124674D02*
X19780301Y-11115150D01*
X19780301Y-11115150D02*
X19818396Y-11115150D01*
X19818396Y-11115150D02*
X19837444Y-11124674D01*
X19837444Y-11124674D02*
X19846968Y-11143722D01*
X19846968Y-11143722D02*
X19846968Y-11162770D01*
X19846968Y-11162770D02*
X19751730Y-11181817D01*
X19923158Y-11238960D02*
X19942206Y-11248484D01*
X19942206Y-11248484D02*
X19980301Y-11248484D01*
X19980301Y-11248484D02*
X19999349Y-11238960D01*
X19999349Y-11238960D02*
X20008873Y-11219912D01*
X20008873Y-11219912D02*
X20008873Y-11210388D01*
X20008873Y-11210388D02*
X19999349Y-11191341D01*
X19999349Y-11191341D02*
X19980301Y-11181817D01*
X19980301Y-11181817D02*
X19951730Y-11181817D01*
X19951730Y-11181817D02*
X19932682Y-11172293D01*
X19932682Y-11172293D02*
X19923158Y-11153246D01*
X19923158Y-11153246D02*
X19923158Y-11143722D01*
X19923158Y-11143722D02*
X19932682Y-11124674D01*
X19932682Y-11124674D02*
X19951730Y-11115150D01*
X19951730Y-11115150D02*
X19980301Y-11115150D01*
X19980301Y-11115150D02*
X19999349Y-11124674D01*
X20075539Y-11324674D02*
X20085063Y-11315150D01*
X20085063Y-11315150D02*
X20104111Y-11286579D01*
X20104111Y-11286579D02*
X20113634Y-11267531D01*
X20113634Y-11267531D02*
X20123158Y-11238960D01*
X20123158Y-11238960D02*
X20132682Y-11191341D01*
X20132682Y-11191341D02*
X20132682Y-11153246D01*
X20132682Y-11153246D02*
X20123158Y-11105627D01*
X20123158Y-11105627D02*
X20113634Y-11077055D01*
X20113634Y-11077055D02*
X20104111Y-11058008D01*
X20104111Y-11058008D02*
X20085063Y-11029436D01*
X20085063Y-11029436D02*
X20075539Y-11019912D01*
D12*
X15095000Y-11406000D02*
X15095000Y-11436000D01*
X15080000Y-11421000D02*
X15110000Y-11421000D01*
D11*
X15408872Y-11312484D02*
X15427920Y-11312484D01*
X15427920Y-11312484D02*
X15446967Y-11322008D01*
X15446967Y-11322008D02*
X15456491Y-11331531D01*
X15456491Y-11331531D02*
X15466015Y-11350579D01*
X15466015Y-11350579D02*
X15475539Y-11388674D01*
X15475539Y-11388674D02*
X15475539Y-11436293D01*
X15475539Y-11436293D02*
X15466015Y-11474388D01*
X15466015Y-11474388D02*
X15456491Y-11493436D01*
X15456491Y-11493436D02*
X15446967Y-11502960D01*
X15446967Y-11502960D02*
X15427920Y-11512484D01*
X15427920Y-11512484D02*
X15408872Y-11512484D01*
X15408872Y-11512484D02*
X15389824Y-11502960D01*
X15389824Y-11502960D02*
X15380301Y-11493436D01*
X15380301Y-11493436D02*
X15370777Y-11474388D01*
X15370777Y-11474388D02*
X15361253Y-11436293D01*
X15361253Y-11436293D02*
X15361253Y-11388674D01*
X15361253Y-11388674D02*
X15370777Y-11350579D01*
X15370777Y-11350579D02*
X15380301Y-11331531D01*
X15380301Y-11331531D02*
X15389824Y-11322008D01*
X15389824Y-11322008D02*
X15408872Y-11312484D01*
X15561253Y-11493436D02*
X15570777Y-11502960D01*
X15570777Y-11502960D02*
X15561253Y-11512484D01*
X15561253Y-11512484D02*
X15551729Y-11502960D01*
X15551729Y-11502960D02*
X15561253Y-11493436D01*
X15561253Y-11493436D02*
X15561253Y-11512484D01*
X15637443Y-11312484D02*
X15761253Y-11312484D01*
X15761253Y-11312484D02*
X15694586Y-11388674D01*
X15694586Y-11388674D02*
X15723158Y-11388674D01*
X15723158Y-11388674D02*
X15742205Y-11398198D01*
X15742205Y-11398198D02*
X15751729Y-11407722D01*
X15751729Y-11407722D02*
X15761253Y-11426769D01*
X15761253Y-11426769D02*
X15761253Y-11474388D01*
X15761253Y-11474388D02*
X15751729Y-11493436D01*
X15751729Y-11493436D02*
X15742205Y-11502960D01*
X15742205Y-11502960D02*
X15723158Y-11512484D01*
X15723158Y-11512484D02*
X15666015Y-11512484D01*
X15666015Y-11512484D02*
X15646967Y-11502960D01*
X15646967Y-11502960D02*
X15637443Y-11493436D01*
X15885062Y-11312484D02*
X15904110Y-11312484D01*
X15904110Y-11312484D02*
X15923158Y-11322008D01*
X15923158Y-11322008D02*
X15932682Y-11331531D01*
X15932682Y-11331531D02*
X15942205Y-11350579D01*
X15942205Y-11350579D02*
X15951729Y-11388674D01*
X15951729Y-11388674D02*
X15951729Y-11436293D01*
X15951729Y-11436293D02*
X15942205Y-11474388D01*
X15942205Y-11474388D02*
X15932682Y-11493436D01*
X15932682Y-11493436D02*
X15923158Y-11502960D01*
X15923158Y-11502960D02*
X15904110Y-11512484D01*
X15904110Y-11512484D02*
X15885062Y-11512484D01*
X15885062Y-11512484D02*
X15866015Y-11502960D01*
X15866015Y-11502960D02*
X15856491Y-11493436D01*
X15856491Y-11493436D02*
X15846967Y-11474388D01*
X15846967Y-11474388D02*
X15837443Y-11436293D01*
X15837443Y-11436293D02*
X15837443Y-11388674D01*
X15837443Y-11388674D02*
X15846967Y-11350579D01*
X15846967Y-11350579D02*
X15856491Y-11331531D01*
X15856491Y-11331531D02*
X15866015Y-11322008D01*
X15866015Y-11322008D02*
X15885062Y-11312484D01*
X16075539Y-11312484D02*
X16094586Y-11312484D01*
X16094586Y-11312484D02*
X16113634Y-11322008D01*
X16113634Y-11322008D02*
X16123158Y-11331531D01*
X16123158Y-11331531D02*
X16132682Y-11350579D01*
X16132682Y-11350579D02*
X16142205Y-11388674D01*
X16142205Y-11388674D02*
X16142205Y-11436293D01*
X16142205Y-11436293D02*
X16132682Y-11474388D01*
X16132682Y-11474388D02*
X16123158Y-11493436D01*
X16123158Y-11493436D02*
X16113634Y-11502960D01*
X16113634Y-11502960D02*
X16094586Y-11512484D01*
X16094586Y-11512484D02*
X16075539Y-11512484D01*
X16075539Y-11512484D02*
X16056491Y-11502960D01*
X16056491Y-11502960D02*
X16046967Y-11493436D01*
X16046967Y-11493436D02*
X16037443Y-11474388D01*
X16037443Y-11474388D02*
X16027920Y-11436293D01*
X16027920Y-11436293D02*
X16027920Y-11388674D01*
X16027920Y-11388674D02*
X16037443Y-11350579D01*
X16037443Y-11350579D02*
X16046967Y-11331531D01*
X16046967Y-11331531D02*
X16056491Y-11322008D01*
X16056491Y-11322008D02*
X16075539Y-11312484D01*
X16227920Y-11512484D02*
X16227920Y-11379150D01*
X16227920Y-11398198D02*
X16237443Y-11388674D01*
X16237443Y-11388674D02*
X16256491Y-11379150D01*
X16256491Y-11379150D02*
X16285063Y-11379150D01*
X16285063Y-11379150D02*
X16304110Y-11388674D01*
X16304110Y-11388674D02*
X16313634Y-11407722D01*
X16313634Y-11407722D02*
X16313634Y-11512484D01*
X16313634Y-11407722D02*
X16323158Y-11388674D01*
X16323158Y-11388674D02*
X16342205Y-11379150D01*
X16342205Y-11379150D02*
X16370777Y-11379150D01*
X16370777Y-11379150D02*
X16389824Y-11388674D01*
X16389824Y-11388674D02*
X16399348Y-11407722D01*
X16399348Y-11407722D02*
X16399348Y-11512484D01*
X16494586Y-11512484D02*
X16494586Y-11379150D01*
X16494586Y-11398198D02*
X16504110Y-11388674D01*
X16504110Y-11388674D02*
X16523158Y-11379150D01*
X16523158Y-11379150D02*
X16551729Y-11379150D01*
X16551729Y-11379150D02*
X16570777Y-11388674D01*
X16570777Y-11388674D02*
X16580301Y-11407722D01*
X16580301Y-11407722D02*
X16580301Y-11512484D01*
X16580301Y-11407722D02*
X16589824Y-11388674D01*
X16589824Y-11388674D02*
X16608872Y-11379150D01*
X16608872Y-11379150D02*
X16637443Y-11379150D01*
X16637443Y-11379150D02*
X16656491Y-11388674D01*
X16656491Y-11388674D02*
X16666015Y-11407722D01*
X16666015Y-11407722D02*
X16666015Y-11512484D01*
X17056491Y-11302960D02*
X16885063Y-11560103D01*
X17313634Y-11312484D02*
X17332682Y-11312484D01*
X17332682Y-11312484D02*
X17351729Y-11322008D01*
X17351729Y-11322008D02*
X17361253Y-11331531D01*
X17361253Y-11331531D02*
X17370777Y-11350579D01*
X17370777Y-11350579D02*
X17380301Y-11388674D01*
X17380301Y-11388674D02*
X17380301Y-11436293D01*
X17380301Y-11436293D02*
X17370777Y-11474388D01*
X17370777Y-11474388D02*
X17361253Y-11493436D01*
X17361253Y-11493436D02*
X17351729Y-11502960D01*
X17351729Y-11502960D02*
X17332682Y-11512484D01*
X17332682Y-11512484D02*
X17313634Y-11512484D01*
X17313634Y-11512484D02*
X17294587Y-11502960D01*
X17294587Y-11502960D02*
X17285063Y-11493436D01*
X17285063Y-11493436D02*
X17275539Y-11474388D01*
X17275539Y-11474388D02*
X17266015Y-11436293D01*
X17266015Y-11436293D02*
X17266015Y-11388674D01*
X17266015Y-11388674D02*
X17275539Y-11350579D01*
X17275539Y-11350579D02*
X17285063Y-11331531D01*
X17285063Y-11331531D02*
X17294587Y-11322008D01*
X17294587Y-11322008D02*
X17313634Y-11312484D01*
X17466015Y-11493436D02*
X17475539Y-11502960D01*
X17475539Y-11502960D02*
X17466015Y-11512484D01*
X17466015Y-11512484D02*
X17456491Y-11502960D01*
X17456491Y-11502960D02*
X17466015Y-11493436D01*
X17466015Y-11493436D02*
X17466015Y-11512484D01*
X17599348Y-11312484D02*
X17618396Y-11312484D01*
X17618396Y-11312484D02*
X17637444Y-11322008D01*
X17637444Y-11322008D02*
X17646968Y-11331531D01*
X17646968Y-11331531D02*
X17656491Y-11350579D01*
X17656491Y-11350579D02*
X17666015Y-11388674D01*
X17666015Y-11388674D02*
X17666015Y-11436293D01*
X17666015Y-11436293D02*
X17656491Y-11474388D01*
X17656491Y-11474388D02*
X17646968Y-11493436D01*
X17646968Y-11493436D02*
X17637444Y-11502960D01*
X17637444Y-11502960D02*
X17618396Y-11512484D01*
X17618396Y-11512484D02*
X17599348Y-11512484D01*
X17599348Y-11512484D02*
X17580301Y-11502960D01*
X17580301Y-11502960D02*
X17570777Y-11493436D01*
X17570777Y-11493436D02*
X17561253Y-11474388D01*
X17561253Y-11474388D02*
X17551729Y-11436293D01*
X17551729Y-11436293D02*
X17551729Y-11388674D01*
X17551729Y-11388674D02*
X17561253Y-11350579D01*
X17561253Y-11350579D02*
X17570777Y-11331531D01*
X17570777Y-11331531D02*
X17580301Y-11322008D01*
X17580301Y-11322008D02*
X17599348Y-11312484D01*
X17856491Y-11512484D02*
X17742206Y-11512484D01*
X17799348Y-11512484D02*
X17799348Y-11312484D01*
X17799348Y-11312484D02*
X17780301Y-11341055D01*
X17780301Y-11341055D02*
X17761253Y-11360103D01*
X17761253Y-11360103D02*
X17742206Y-11369627D01*
X18046968Y-11512484D02*
X17932682Y-11512484D01*
X17989825Y-11512484D02*
X17989825Y-11312484D01*
X17989825Y-11312484D02*
X17970777Y-11341055D01*
X17970777Y-11341055D02*
X17951729Y-11360103D01*
X17951729Y-11360103D02*
X17932682Y-11369627D01*
X18161253Y-11398198D02*
X18142206Y-11388674D01*
X18142206Y-11388674D02*
X18132682Y-11379150D01*
X18132682Y-11379150D02*
X18123158Y-11360103D01*
X18123158Y-11360103D02*
X18123158Y-11350579D01*
X18123158Y-11350579D02*
X18132682Y-11331531D01*
X18132682Y-11331531D02*
X18142206Y-11322008D01*
X18142206Y-11322008D02*
X18161253Y-11312484D01*
X18161253Y-11312484D02*
X18199349Y-11312484D01*
X18199349Y-11312484D02*
X18218396Y-11322008D01*
X18218396Y-11322008D02*
X18227920Y-11331531D01*
X18227920Y-11331531D02*
X18237444Y-11350579D01*
X18237444Y-11350579D02*
X18237444Y-11360103D01*
X18237444Y-11360103D02*
X18227920Y-11379150D01*
X18227920Y-11379150D02*
X18218396Y-11388674D01*
X18218396Y-11388674D02*
X18199349Y-11398198D01*
X18199349Y-11398198D02*
X18161253Y-11398198D01*
X18161253Y-11398198D02*
X18142206Y-11407722D01*
X18142206Y-11407722D02*
X18132682Y-11417246D01*
X18132682Y-11417246D02*
X18123158Y-11436293D01*
X18123158Y-11436293D02*
X18123158Y-11474388D01*
X18123158Y-11474388D02*
X18132682Y-11493436D01*
X18132682Y-11493436D02*
X18142206Y-11502960D01*
X18142206Y-11502960D02*
X18161253Y-11512484D01*
X18161253Y-11512484D02*
X18199349Y-11512484D01*
X18199349Y-11512484D02*
X18218396Y-11502960D01*
X18218396Y-11502960D02*
X18227920Y-11493436D01*
X18227920Y-11493436D02*
X18237444Y-11474388D01*
X18237444Y-11474388D02*
X18237444Y-11436293D01*
X18237444Y-11436293D02*
X18227920Y-11417246D01*
X18227920Y-11417246D02*
X18218396Y-11407722D01*
X18218396Y-11407722D02*
X18199349Y-11398198D01*
X18313634Y-11312484D02*
X18313634Y-11350579D01*
X18389825Y-11312484D02*
X18389825Y-11350579D01*
X18685063Y-11588674D02*
X18675539Y-11579150D01*
X18675539Y-11579150D02*
X18656491Y-11550579D01*
X18656491Y-11550579D02*
X18646968Y-11531531D01*
X18646968Y-11531531D02*
X18637444Y-11502960D01*
X18637444Y-11502960D02*
X18627920Y-11455341D01*
X18627920Y-11455341D02*
X18627920Y-11417246D01*
X18627920Y-11417246D02*
X18637444Y-11369627D01*
X18637444Y-11369627D02*
X18646968Y-11341055D01*
X18646968Y-11341055D02*
X18656491Y-11322008D01*
X18656491Y-11322008D02*
X18675539Y-11293436D01*
X18675539Y-11293436D02*
X18685063Y-11283912D01*
X18789825Y-11398198D02*
X18770777Y-11388674D01*
X18770777Y-11388674D02*
X18761253Y-11379150D01*
X18761253Y-11379150D02*
X18751730Y-11360103D01*
X18751730Y-11360103D02*
X18751730Y-11350579D01*
X18751730Y-11350579D02*
X18761253Y-11331531D01*
X18761253Y-11331531D02*
X18770777Y-11322008D01*
X18770777Y-11322008D02*
X18789825Y-11312484D01*
X18789825Y-11312484D02*
X18827920Y-11312484D01*
X18827920Y-11312484D02*
X18846968Y-11322008D01*
X18846968Y-11322008D02*
X18856491Y-11331531D01*
X18856491Y-11331531D02*
X18866015Y-11350579D01*
X18866015Y-11350579D02*
X18866015Y-11360103D01*
X18866015Y-11360103D02*
X18856491Y-11379150D01*
X18856491Y-11379150D02*
X18846968Y-11388674D01*
X18846968Y-11388674D02*
X18827920Y-11398198D01*
X18827920Y-11398198D02*
X18789825Y-11398198D01*
X18789825Y-11398198D02*
X18770777Y-11407722D01*
X18770777Y-11407722D02*
X18761253Y-11417246D01*
X18761253Y-11417246D02*
X18751730Y-11436293D01*
X18751730Y-11436293D02*
X18751730Y-11474388D01*
X18751730Y-11474388D02*
X18761253Y-11493436D01*
X18761253Y-11493436D02*
X18770777Y-11502960D01*
X18770777Y-11502960D02*
X18789825Y-11512484D01*
X18789825Y-11512484D02*
X18827920Y-11512484D01*
X18827920Y-11512484D02*
X18846968Y-11502960D01*
X18846968Y-11502960D02*
X18856491Y-11493436D01*
X18856491Y-11493436D02*
X18866015Y-11474388D01*
X18866015Y-11474388D02*
X18866015Y-11436293D01*
X18866015Y-11436293D02*
X18856491Y-11417246D01*
X18856491Y-11417246D02*
X18846968Y-11407722D01*
X18846968Y-11407722D02*
X18827920Y-11398198D01*
X19104111Y-11512484D02*
X19104111Y-11312484D01*
X19189825Y-11512484D02*
X19189825Y-11407722D01*
X19189825Y-11407722D02*
X19180301Y-11388674D01*
X19180301Y-11388674D02*
X19161253Y-11379150D01*
X19161253Y-11379150D02*
X19132682Y-11379150D01*
X19132682Y-11379150D02*
X19113634Y-11388674D01*
X19113634Y-11388674D02*
X19104111Y-11398198D01*
X19313634Y-11512484D02*
X19294587Y-11502960D01*
X19294587Y-11502960D02*
X19285063Y-11493436D01*
X19285063Y-11493436D02*
X19275539Y-11474388D01*
X19275539Y-11474388D02*
X19275539Y-11417246D01*
X19275539Y-11417246D02*
X19285063Y-11398198D01*
X19285063Y-11398198D02*
X19294587Y-11388674D01*
X19294587Y-11388674D02*
X19313634Y-11379150D01*
X19313634Y-11379150D02*
X19342206Y-11379150D01*
X19342206Y-11379150D02*
X19361253Y-11388674D01*
X19361253Y-11388674D02*
X19370777Y-11398198D01*
X19370777Y-11398198D02*
X19380301Y-11417246D01*
X19380301Y-11417246D02*
X19380301Y-11474388D01*
X19380301Y-11474388D02*
X19370777Y-11493436D01*
X19370777Y-11493436D02*
X19361253Y-11502960D01*
X19361253Y-11502960D02*
X19342206Y-11512484D01*
X19342206Y-11512484D02*
X19313634Y-11512484D01*
X19494587Y-11512484D02*
X19475539Y-11502960D01*
X19475539Y-11502960D02*
X19466015Y-11483912D01*
X19466015Y-11483912D02*
X19466015Y-11312484D01*
X19646968Y-11502960D02*
X19627920Y-11512484D01*
X19627920Y-11512484D02*
X19589825Y-11512484D01*
X19589825Y-11512484D02*
X19570777Y-11502960D01*
X19570777Y-11502960D02*
X19561253Y-11483912D01*
X19561253Y-11483912D02*
X19561253Y-11407722D01*
X19561253Y-11407722D02*
X19570777Y-11388674D01*
X19570777Y-11388674D02*
X19589825Y-11379150D01*
X19589825Y-11379150D02*
X19627920Y-11379150D01*
X19627920Y-11379150D02*
X19646968Y-11388674D01*
X19646968Y-11388674D02*
X19656492Y-11407722D01*
X19656492Y-11407722D02*
X19656492Y-11426769D01*
X19656492Y-11426769D02*
X19561253Y-11445817D01*
X19732682Y-11502960D02*
X19751730Y-11512484D01*
X19751730Y-11512484D02*
X19789825Y-11512484D01*
X19789825Y-11512484D02*
X19808873Y-11502960D01*
X19808873Y-11502960D02*
X19818396Y-11483912D01*
X19818396Y-11483912D02*
X19818396Y-11474388D01*
X19818396Y-11474388D02*
X19808873Y-11455341D01*
X19808873Y-11455341D02*
X19789825Y-11445817D01*
X19789825Y-11445817D02*
X19761253Y-11445817D01*
X19761253Y-11445817D02*
X19742206Y-11436293D01*
X19742206Y-11436293D02*
X19732682Y-11417246D01*
X19732682Y-11417246D02*
X19732682Y-11407722D01*
X19732682Y-11407722D02*
X19742206Y-11388674D01*
X19742206Y-11388674D02*
X19761253Y-11379150D01*
X19761253Y-11379150D02*
X19789825Y-11379150D01*
X19789825Y-11379150D02*
X19808873Y-11388674D01*
X19885063Y-11588674D02*
X19894587Y-11579150D01*
X19894587Y-11579150D02*
X19913634Y-11550579D01*
X19913634Y-11550579D02*
X19923158Y-11531531D01*
X19923158Y-11531531D02*
X19932682Y-11502960D01*
X19932682Y-11502960D02*
X19942206Y-11455341D01*
X19942206Y-11455341D02*
X19942206Y-11417246D01*
X19942206Y-11417246D02*
X19932682Y-11369627D01*
X19932682Y-11369627D02*
X19923158Y-11341055D01*
X19923158Y-11341055D02*
X19913634Y-11322008D01*
X19913634Y-11322008D02*
X19894587Y-11293436D01*
X19894587Y-11293436D02*
X19885063Y-11283912D01*
M02*
