%TF.GenerationSoftware,KiCad,Pcbnew,8.0.3+1*%
%TF.CreationDate,2024-06-24T22:52:21-04:00*%
%TF.ProjectId,RP2040_ZERO_REV,52503230-3430-45f5-9a45-524f5f524556,rev?*%
%TF.SameCoordinates,Original*%
%TF.FileFunction,Copper,L2,Bot*%
%TF.FilePolarity,Positive*%
%FSLAX46Y46*%
G04 Gerber Fmt 4.6, Leading zero omitted, Abs format (unit mm)*
G04 Created by KiCad (PCBNEW 8.0.3+1) date 2024-06-24 22:52:21*
%MOMM*%
%LPD*%
G01*
G04 APERTURE LIST*
%TA.AperFunction,SMDPad,CuDef*%
%ADD10R,0.500000X0.500000*%
%TD*%
%TA.AperFunction,SMDPad,CuDef*%
%ADD11R,0.450000X0.450000*%
%TD*%
%TA.AperFunction,SMDPad,CuDef*%
%ADD12R,0.400000X0.400000*%
%TD*%
%TA.AperFunction,SMDPad,CuDef*%
%ADD13O,1.700000X1.700000*%
%TD*%
%TA.AperFunction,ViaPad*%
%ADD14C,0.300000*%
%TD*%
%TA.AperFunction,ViaPad*%
%ADD15C,0.500000*%
%TD*%
%TA.AperFunction,ViaPad*%
%ADD16C,0.590000*%
%TD*%
%TA.AperFunction,Conductor*%
%ADD17C,0.190000*%
%TD*%
G04 APERTURE END LIST*
D10*
%TO.P,,1*%
%TO.N,P10*%
X161140000Y-99510000D03*
%TD*%
%TO.P,,2*%
%TO.N,R10*%
X161890000Y-97210000D03*
%TD*%
%TO.P,,2*%
%TO.N,R11*%
X161890000Y-98360000D03*
%TD*%
D11*
%TO.P,,1*%
%TO.N,P20*%
X163890000Y-84910000D03*
%TD*%
D10*
%TO.P,,2*%
%TO.N,R12*%
X161890000Y-99510000D03*
%TD*%
D11*
%TO.P,,1*%
%TO.N,R21*%
X155400000Y-86060000D03*
%TD*%
%TO.P,,2*%
%TO.N,GND*%
X158900000Y-82610000D03*
%TD*%
%TO.P,,1*%
%TO.N,R20*%
X155400000Y-87210000D03*
%TD*%
%TO.P,,2*%
%TO.N,RX*%
X158900000Y-80310000D03*
%TD*%
%TO.P,,1*%
%TO.N,R23*%
X155400000Y-79160000D03*
%TD*%
%TO.P,,2*%
%TO.N,R1*%
X164640000Y-79160000D03*
%TD*%
%TO.P,,1*%
%TO.N,5V*%
X161140000Y-79160000D03*
%TD*%
%TO.P,,2*%
%TO.N,P5*%
X156150000Y-87210000D03*
%TD*%
%TO.P,,1*%
%TO.N,R3*%
X158150000Y-82610000D03*
%TD*%
D12*
%TO.P,,1*%
%TO.N,R6*%
X158150000Y-86060000D03*
%TD*%
D10*
%TO.P,,1*%
%TO.N,R16*%
X155400000Y-96060000D03*
%TD*%
D11*
%TO.P,,2*%
%TO.N,SDA*%
X156150000Y-83760000D03*
%TD*%
%TO.P,,2*%
%TO.N,R22*%
X161890000Y-80310000D03*
%TD*%
D10*
%TO.P,,1*%
%TO.N,R12*%
X155400000Y-99510000D03*
%TD*%
%TO.P,,1*%
%TO.N,R9*%
X158150000Y-96060000D03*
%TD*%
D11*
%TO.P,,1*%
%TO.N,GND*%
X161140000Y-80310000D03*
%TD*%
%TO.P,,1*%
%TO.N,P18*%
X161140000Y-87210000D03*
%TD*%
D10*
%TO.P,,1*%
%TO.N,R10*%
X155400000Y-97210000D03*
%TD*%
D11*
%TO.P,,1*%
%TO.N,R2*%
X155400000Y-82610000D03*
%TD*%
%TO.P,,2*%
%TO.N,R14*%
X164640000Y-87210000D03*
%TD*%
%TO.P,,2*%
%TO.N,TX*%
X158900000Y-79160000D03*
%TD*%
%TO.P,,1*%
%TO.N,P19*%
X161140000Y-86060000D03*
%TD*%
%TO.P,,2*%
%TO.N,P4*%
X156150000Y-86060000D03*
%TD*%
%TO.P,,1*%
%TO.N,R22*%
X155400000Y-80310000D03*
%TD*%
%TO.P,,2*%
%TO.N,R21*%
X161890000Y-81460000D03*
%TD*%
D10*
%TO.P,,2*%
%TO.N,R9*%
X164640000Y-96060000D03*
%TD*%
D11*
%TO.P,,2*%
%TO.N,R2*%
X161890000Y-82610000D03*
%TD*%
D10*
%TO.P,,1*%
%TO.N,R8*%
X158150000Y-98360000D03*
%TD*%
D11*
%TO.P,,2*%
%TO.N,RX*%
X156150000Y-80310000D03*
%TD*%
D10*
%TO.P,,1*%
%TO.N,MISO*%
X163890000Y-97210000D03*
%TD*%
D11*
%TO.P,,2*%
%TO.N,R5*%
X164640000Y-84910000D03*
%TD*%
%TO.P,,2*%
%TO.N,R21*%
X161890000Y-86060000D03*
%TD*%
%TO.P,,1*%
%TO.N,R2*%
X155400000Y-81460000D03*
%TD*%
D10*
%TO.P,,2*%
%TO.N,R8*%
X164640000Y-98360000D03*
%TD*%
D11*
%TO.P,,2*%
%TO.N,SCL*%
X156150000Y-84910000D03*
%TD*%
%TO.P,,1*%
%TO.N,R2*%
X158150000Y-80310000D03*
%TD*%
D10*
%TO.P,,2*%
%TO.N,P6*%
X158900000Y-96060000D03*
%TD*%
D12*
%TO.P,,2*%
%TO.N,SCL*%
X158900000Y-84910000D03*
%TD*%
D10*
%TO.P,,1*%
%TO.N,SCLK*%
X163890000Y-96060000D03*
%TD*%
D11*
%TO.P,,1*%
%TO.N,3V*%
X163890000Y-82610000D03*
%TD*%
D10*
%TO.P,,2*%
%TO.N,P9*%
X156150000Y-99510000D03*
%TD*%
D12*
%TO.P,,1*%
%TO.N,R5*%
X158150000Y-84910000D03*
%TD*%
D11*
%TO.P,,2*%
%TO.N,R4*%
X164640000Y-83760000D03*
%TD*%
D10*
%TO.P,,1*%
%TO.N,P10*%
X163890000Y-99510000D03*
%TD*%
D11*
%TO.P,,1*%
%TO.N,P21*%
X161140000Y-83760000D03*
%TD*%
%TO.P,,2*%
%TO.N,R20*%
X161890000Y-87210000D03*
%TD*%
%TO.P,,2*%
%TO.N,GND*%
X156150000Y-82610000D03*
%TD*%
%TO.P,,2*%
%TO.N,R23*%
X161890000Y-79160000D03*
%TD*%
D10*
%TO.P,,1*%
%TO.N,SCLK*%
X161140000Y-96060000D03*
%TD*%
%TO.P,,1*%
%TO.N,R13*%
X158150000Y-99510000D03*
%TD*%
%TO.P,,2*%
%TO.N,P6*%
X156150000Y-96060000D03*
%TD*%
D11*
%TO.P,,2*%
%TO.N,SDA*%
X158900000Y-83760000D03*
%TD*%
D10*
%TO.P,,1*%
%TO.N,MISO*%
X161140000Y-97210000D03*
%TD*%
%TO.P,,1*%
%TO.N,R11*%
X155400000Y-98360000D03*
%TD*%
%TO.P,,2*%
%TO.N,P7*%
X156150000Y-97210000D03*
%TD*%
%TO.P,,2*%
%TO.N,R16*%
X161890000Y-96060000D03*
%TD*%
D11*
%TO.P,,1*%
%TO.N,P20*%
X161140000Y-84910000D03*
%TD*%
%TO.P,,1*%
%TO.N,R4*%
X158150000Y-83760000D03*
%TD*%
%TO.P,,1*%
%TO.N,P21*%
X163890000Y-83760000D03*
%TD*%
%TO.P,,2*%
%TO.N,R2*%
X164640000Y-80310000D03*
%TD*%
%TO.P,,1*%
%TO.N,5V*%
X163890000Y-79160000D03*
%TD*%
%TO.P,,1*%
%TO.N,GND*%
X163890000Y-80310000D03*
%TD*%
%TO.P,,1*%
%TO.N,P18*%
X163890000Y-87210000D03*
%TD*%
%TO.P,,1*%
%TO.N,3V*%
X161140000Y-82610000D03*
%TD*%
D10*
%TO.P,,2*%
%TO.N,R15*%
X164640000Y-97210000D03*
%TD*%
D11*
%TO.P,,2*%
%TO.N,R18*%
X161890000Y-84910000D03*
%TD*%
%TO.P,,2*%
%TO.N,P5*%
X158900000Y-87210000D03*
%TD*%
%TO.P,,1*%
%TO.N,P19*%
X163890000Y-86060000D03*
%TD*%
%TO.P,,2*%
%TO.N,R3*%
X164640000Y-82610000D03*
%TD*%
%TO.P,,1*%
%TO.N,R19*%
X155400000Y-83760000D03*
%TD*%
D10*
%TO.P,,2*%
%TO.N,P9*%
X158900000Y-99510000D03*
%TD*%
D11*
%TO.P,,1*%
%TO.N,R1*%
X158150000Y-79160000D03*
%TD*%
%TO.P,,1*%
%TO.N,GND*%
X161140000Y-81460000D03*
%TD*%
D10*
%TO.P,,2*%
%TO.N,R13*%
X164640000Y-99510000D03*
%TD*%
%TO.P,,2*%
%TO.N,P8*%
X156150000Y-98360000D03*
%TD*%
D11*
%TO.P,,1*%
%TO.N,R18*%
X155400000Y-84910000D03*
%TD*%
D10*
%TO.P,,2*%
%TO.N,P7*%
X158900000Y-97210000D03*
%TD*%
D11*
%TO.P,,2*%
%TO.N,TX*%
X156150000Y-79160000D03*
%TD*%
D10*
%TO.P,,1*%
%TO.N,MOSI*%
X163890000Y-98360000D03*
%TD*%
D11*
%TO.P,,2*%
%TO.N,R19*%
X161890000Y-83760000D03*
%TD*%
%TO.P,,2*%
%TO.N,R6*%
X164640000Y-86060000D03*
%TD*%
%TO.P,,1*%
%TO.N,R14*%
X158150000Y-87210000D03*
%TD*%
%TO.P,,2*%
%TO.N,GND*%
X156150000Y-81460000D03*
%TD*%
D10*
%TO.P,,1*%
%TO.N,MOSI*%
X161140000Y-98360000D03*
%TD*%
%TO.P,,2*%
%TO.N,P8*%
X158900000Y-98360000D03*
%TD*%
%TO.P,,1*%
%TO.N,R15*%
X158150000Y-97210000D03*
%TD*%
D13*
%TO.P,,8*%
%TO.N,P5*%
X152400000Y-91070000D03*
%TD*%
%TO.P,,21*%
%TO.N,3V*%
X167640000Y-80910000D03*
%TD*%
%TO.P,,4*%
%TO.N,GND*%
X152400000Y-80910000D03*
%TD*%
%TO.P,,16*%
%TO.N,SCLK*%
X167640000Y-93610000D03*
%TD*%
%TO.P,,5*%
%TO.N,SDA*%
X152400000Y-83450000D03*
%TD*%
%TO.P,,10*%
%TO.N,P7*%
X152400000Y-96150000D03*
%TD*%
%TO.P,,23*%
%TO.N,GND*%
X167640000Y-75830000D03*
%TD*%
%TO.P,,12*%
%TO.N,P9*%
X152400000Y-101230000D03*
%TD*%
%TO.P,,9*%
%TO.N,P6*%
X152400000Y-93610000D03*
%TD*%
%TO.P,,19*%
%TO.N,P20*%
X167640000Y-85990000D03*
%TD*%
%TO.P,,3*%
%TO.N,GND*%
X152400000Y-78370000D03*
%TD*%
%TO.P,,14*%
%TO.N,MOSI*%
X167640000Y-98690000D03*
%TD*%
%TO.P,,2*%
%TO.N,RX*%
X152400000Y-75830000D03*
%TD*%
%TO.P,,6*%
%TO.N,SCL*%
X152400000Y-85990000D03*
%TD*%
%TO.P,,1*%
%TO.N,TX*%
X152400000Y-73290000D03*
%TD*%
%TO.P,,13*%
%TO.N,P10*%
X167640000Y-101230000D03*
%TD*%
%TO.P,,24*%
%TO.N,5V*%
X167640000Y-73290000D03*
%TD*%
%TO.P,,20*%
%TO.N,P21*%
X167640000Y-83450000D03*
%TD*%
%TO.P,,11*%
%TO.N,P8*%
X152400000Y-98690000D03*
%TD*%
%TO.P,,22*%
%TO.N,NA*%
X167640000Y-78370000D03*
%TD*%
%TO.P,,17*%
%TO.N,P18*%
X167640000Y-91070000D03*
%TD*%
%TO.P,,15*%
%TO.N,MISO*%
X167640000Y-96150000D03*
%TD*%
%TO.P,,7*%
%TO.N,P4*%
X152400000Y-88530000D03*
%TD*%
%TO.P,,18*%
%TO.N,P19*%
X167640000Y-88530000D03*
%TD*%
D12*
%TO.P,,2*%
%TO.N,P4*%
X158900000Y-86060000D03*
%TD*%
D14*
%TO.N,R2*%
X162242592Y-82442592D03*
X163623841Y-80911744D03*
D15*
%TO.N,RX*%
X156990000Y-79070000D03*
X159490000Y-79850000D03*
D14*
%TO.N,R21*%
X162725002Y-81344999D03*
D15*
%TO.N,GND*%
X158655000Y-81865000D03*
%TO.N,5V*%
X162446697Y-75056697D03*
%TO.N,TX*%
X157810000Y-75640000D03*
D14*
%TO.N,SDA*%
X159160000Y-83635000D03*
D15*
X156571697Y-83838303D03*
%TO.N,R4*%
X159550000Y-81970000D03*
%TO.N,SCL*%
X156570000Y-85165000D03*
D14*
X158815000Y-85140000D03*
%TO.N,P20*%
X161110000Y-84705000D03*
D16*
%TO.N,P19*%
X160095000Y-86095319D03*
D14*
%TO.N,P5*%
X158925000Y-88405000D03*
X158925000Y-87385000D03*
D16*
%TO.N,GND*%
X154510000Y-80880000D03*
X163850001Y-76919757D03*
X157000000Y-82713614D03*
X166360000Y-76430000D03*
X153510000Y-79470000D03*
X154626587Y-82493019D03*
%TO.N,5V*%
X165610000Y-74450000D03*
X164184223Y-75332753D03*
%TO.N,3V*%
X166110000Y-81430000D03*
X164761587Y-81445015D03*
%TO.N,TX*%
X153746471Y-74016471D03*
X155030000Y-75647603D03*
%TO.N,RX*%
X156785787Y-76980000D03*
X153430000Y-76950000D03*
%TO.N,SDA*%
X154370481Y-84399638D03*
X153742273Y-83305763D03*
%TO.N,SCL*%
X153193194Y-87369137D03*
X154600000Y-86510660D03*
%TO.N,MISO*%
X160720000Y-97210000D03*
X163243443Y-97202180D03*
X166385959Y-96842571D03*
%TO.N,MOSI*%
X163173546Y-98410000D03*
X166030000Y-99550000D03*
X160570000Y-100160000D03*
%TO.N,SCLK*%
X160274265Y-95954265D03*
X161700000Y-94750000D03*
%TO.N,P9*%
X157700786Y-101305000D03*
X159024265Y-100365735D03*
X156880000Y-99680000D03*
%TO.N,P10*%
X163992892Y-100242892D03*
X165740000Y-101200000D03*
%TO.N,P18*%
X164090000Y-88590000D03*
X164500000Y-92140000D03*
X160560000Y-87210000D03*
%TO.N,P8*%
X157000000Y-98840000D03*
X154644315Y-100505000D03*
X159189998Y-98360000D03*
X153155217Y-99691092D03*
%TO.N,P7*%
X152950001Y-96834053D03*
X156706471Y-97233529D03*
X158900000Y-97210000D03*
%TO.N,P4*%
X154351470Y-89390000D03*
X157150000Y-86529756D03*
%TO.N,P5*%
X153591232Y-89639084D03*
X156300000Y-87930000D03*
%TO.N,P6*%
X156150000Y-95065000D03*
X156190000Y-92860000D03*
X158880000Y-94880000D03*
%TO.N,P20*%
X166810000Y-87054708D03*
X163440000Y-85351743D03*
%TO.N,P19*%
X162980000Y-91090000D03*
X163072031Y-88610000D03*
%TO.N,R1*%
X155340000Y-74120000D03*
X164240000Y-78130000D03*
%TO.N,R2*%
X154455001Y-75004999D03*
%TO.N,R3*%
X157335735Y-80344265D03*
X153830000Y-78370000D03*
%TO.N,R4*%
X153247226Y-81962187D03*
X156860002Y-81330000D03*
%TO.N,R5*%
X159911714Y-89589999D03*
X157125000Y-84455245D03*
%TO.N,R6*%
X162400000Y-89530000D03*
%TO.N,R8*%
X153692852Y-93093163D03*
%TO.N,R9*%
X157795214Y-96264368D03*
%TO.N,R10*%
X154920000Y-95040000D03*
X162443533Y-97190023D03*
%TO.N,R11*%
X163069239Y-99208157D03*
X156948721Y-95310000D03*
X154550000Y-98494875D03*
%TO.N,R12*%
X161450000Y-100390000D03*
X154055000Y-95056470D03*
%TO.N,R13*%
X160389998Y-98410000D03*
%TO.N,R14*%
X164737892Y-87967892D03*
X160590346Y-87989409D03*
%TO.N,R15*%
X166100000Y-96050000D03*
%TO.N,R16*%
X163120000Y-95490000D03*
%TO.N,R18*%
X162910000Y-84590000D03*
%TO.N,R19*%
X162900000Y-83540000D03*
%TO.N,R20*%
X160509283Y-85400741D03*
%TO.N,R21*%
X159830001Y-84520243D03*
%TO.N,R22*%
X162630000Y-77720000D03*
X155301704Y-77626196D03*
X163312244Y-76354759D03*
%TO.N,R23*%
X163499878Y-74620122D03*
X159860000Y-78320000D03*
X155581626Y-78375628D03*
%TO.N,R6*%
X157931884Y-86120001D03*
%TD*%
D17*
%TO.N,R21*%
X162725002Y-81344999D02*
X162610001Y-81460000D01*
X162610001Y-81460000D02*
X161890000Y-81460000D01*
%TO.N,3V*%
X161140000Y-82610000D02*
X161140000Y-82340000D01*
X161140000Y-82340000D02*
X161510000Y-81970000D01*
X161510000Y-81970000D02*
X163040000Y-81970000D01*
X163040000Y-81970000D02*
X163564985Y-81445015D01*
X163564985Y-81445015D02*
X164761587Y-81445015D01*
%TO.N,R2*%
X162075184Y-82610000D02*
X162242592Y-82442592D01*
X161890000Y-82610000D02*
X162075184Y-82610000D01*
%TO.N,RX*%
X158900000Y-80310000D02*
X159030000Y-80310000D01*
X159030000Y-80310000D02*
X159490000Y-79850000D01*
X156990000Y-79830000D02*
X156990000Y-79070000D01*
X156990000Y-79070000D02*
X156990000Y-77184213D01*
%TO.N,GND*%
X158900000Y-82110000D02*
X158655000Y-81865000D01*
X158900000Y-82610000D02*
X158900000Y-82110000D01*
%TO.N,R2*%
X164640000Y-80310000D02*
X164640000Y-80760000D01*
X161690000Y-80910000D02*
X161640000Y-80860000D01*
X164640000Y-80760000D02*
X164490000Y-80910000D01*
X158150000Y-80670000D02*
X158150000Y-80310000D01*
X164490000Y-80910000D02*
X161690000Y-80910000D01*
X161640000Y-80860000D02*
X158340000Y-80860000D01*
X158340000Y-80860000D02*
X158150000Y-80670000D01*
%TO.N,GND*%
X161140000Y-80310000D02*
X161140000Y-79895000D01*
X162460000Y-78370244D02*
X162050000Y-77960244D01*
X161140000Y-79895000D02*
X161295000Y-79740000D01*
X161295000Y-79740000D02*
X162390000Y-79740000D01*
X163552488Y-75774759D02*
X163892244Y-76114515D01*
X162390000Y-79740000D02*
X162460000Y-79670000D01*
X162050000Y-76747401D02*
X163022642Y-75774759D01*
X162460000Y-79670000D02*
X162460000Y-78370244D01*
X162050000Y-77960244D02*
X162050000Y-76747401D01*
X163022642Y-75774759D02*
X163552488Y-75774759D01*
X163892244Y-76114515D02*
X163892244Y-76877514D01*
X163892244Y-76877514D02*
X163850001Y-76919757D01*
%TO.N,R22*%
X163312244Y-76354759D02*
X162630000Y-77037003D01*
X162630000Y-77037003D02*
X162630000Y-77720000D01*
%TO.N,GND*%
X163850001Y-76919757D02*
X163230000Y-77539758D01*
X163230000Y-77539758D02*
X163230000Y-79650000D01*
X163230000Y-79650000D02*
X163890000Y-80310000D01*
%TO.N,R23*%
X161890000Y-76369999D02*
X161509999Y-76750000D01*
X161509999Y-76750000D02*
X161509999Y-78209999D01*
X161509999Y-78209999D02*
X161890000Y-78590000D01*
X161890000Y-78590000D02*
X161890000Y-79160000D01*
X159860000Y-78320000D02*
X161210000Y-78320000D01*
X161210000Y-78320000D02*
X161210000Y-77049999D01*
X161210000Y-77049999D02*
X161890000Y-76369999D01*
%TO.N,R22*%
X161890000Y-80310000D02*
X162520000Y-80310000D01*
X162520000Y-80310000D02*
X162850000Y-79980000D01*
X162850000Y-79980000D02*
X162850000Y-77940000D01*
X162850000Y-77940000D02*
X162630000Y-77720000D01*
%TO.N,R23*%
X163499878Y-74620122D02*
X163499878Y-74760121D01*
X163499878Y-74760121D02*
X161890000Y-76369999D01*
%TO.N,5V*%
X161173303Y-75056697D02*
X162446697Y-75056697D01*
X159610000Y-76620000D02*
X161173303Y-75056697D01*
X161140000Y-79160000D02*
X159879756Y-79160000D01*
X159879756Y-79160000D02*
X159280000Y-78560244D01*
X159280000Y-78560244D02*
X159280000Y-76950000D01*
X159280000Y-76950000D02*
X159610000Y-76620000D01*
%TO.N,TX*%
X158900000Y-76730000D02*
X157810000Y-75640000D01*
X158900000Y-79160000D02*
X158900000Y-76730000D01*
%TO.N,SDA*%
X159035000Y-83760000D02*
X159160000Y-83635000D01*
X158900000Y-83760000D02*
X159035000Y-83760000D01*
X156571697Y-83838303D02*
X156228303Y-83838303D01*
X156228303Y-83838303D02*
X156150000Y-83760000D01*
%TO.N,R4*%
X159330000Y-83200000D02*
X159550000Y-82980000D01*
X158890000Y-83200000D02*
X159330000Y-83200000D01*
X158150000Y-83760000D02*
X158150000Y-83345000D01*
X159550000Y-82980000D02*
X159550000Y-81970000D01*
X158150000Y-83345000D02*
X158295000Y-83200000D01*
X158295000Y-83200000D02*
X158890000Y-83200000D01*
%TO.N,P21*%
X161140000Y-83760000D02*
X161140000Y-83345000D01*
X161140000Y-83345000D02*
X161365000Y-83120000D01*
X161365000Y-83120000D02*
X162499756Y-83120000D01*
X163890000Y-83709756D02*
X163890000Y-83760000D01*
X162499756Y-83120000D02*
X162659756Y-82960000D01*
X162659756Y-82960000D02*
X163140244Y-82960000D01*
X163140244Y-82960000D02*
X163890000Y-83709756D01*
%TO.N,SCL*%
X156570000Y-85165000D02*
X156405000Y-85165000D01*
X158900000Y-85055000D02*
X158815000Y-85140000D01*
X156405000Y-85165000D02*
X156150000Y-84910000D01*
X158900000Y-84910000D02*
X158900000Y-85055000D01*
%TO.N,P4*%
X158900000Y-86060000D02*
X158900000Y-85645000D01*
X158900000Y-85645000D02*
X158830000Y-85575000D01*
X158830000Y-85575000D02*
X158207127Y-85575000D01*
X158207127Y-85575000D02*
X158172128Y-85540001D01*
X158172128Y-85540001D02*
X157691640Y-85540001D01*
X157691640Y-85540001D02*
X157171641Y-86060000D01*
%TO.N,R6*%
X157931884Y-86120001D02*
X157991885Y-86060000D01*
X157991885Y-86060000D02*
X158150000Y-86060000D01*
%TO.N,P4*%
X157171641Y-86060000D02*
X157171641Y-86508115D01*
X157171641Y-86508115D02*
X157150000Y-86529756D01*
X157171641Y-86060000D02*
X156150000Y-86060000D01*
%TO.N,P20*%
X161140000Y-84735000D02*
X161110000Y-84705000D01*
X161140000Y-84910000D02*
X161140000Y-84735000D01*
%TO.N,R6*%
X162400000Y-89530000D02*
X164024314Y-89530000D01*
X164024314Y-89530000D02*
X165410000Y-88144314D01*
X165410000Y-88144314D02*
X165410000Y-86830000D01*
X165410000Y-86830000D02*
X164640000Y-86060000D01*
%TO.N,R5*%
X159911714Y-89589999D02*
X160431715Y-90110000D01*
X160431715Y-90110000D02*
X163981716Y-90110000D01*
X163981716Y-90110000D02*
X165810000Y-88281716D01*
X165810000Y-88281716D02*
X165810000Y-86080000D01*
X165810000Y-86080000D02*
X164640000Y-84910000D01*
%TO.N,R18*%
X160151958Y-89009999D02*
X160181959Y-89040000D01*
X154280000Y-85210000D02*
X154000000Y-85490000D01*
X159671470Y-89009999D02*
X160151958Y-89009999D01*
X154196826Y-86958554D02*
X154196826Y-87666826D01*
X159461469Y-89220000D02*
X159671470Y-89009999D01*
X154196826Y-87666826D02*
X155750000Y-89220000D01*
X155750000Y-89220000D02*
X159461469Y-89220000D01*
X154000000Y-86761728D02*
X154196826Y-86958554D01*
X154000000Y-85490000D02*
X154000000Y-86761728D01*
X154730000Y-85210000D02*
X154280000Y-85210000D01*
X155030000Y-84910000D02*
X154730000Y-85210000D01*
X160970000Y-89040000D02*
X162840000Y-87170000D01*
X162840000Y-84660000D02*
X162910000Y-84590000D01*
X160181959Y-89040000D02*
X160970000Y-89040000D01*
X155400000Y-84910000D02*
X155030000Y-84910000D01*
X162840000Y-87170000D02*
X162840000Y-84660000D01*
%TO.N,R14*%
X160570937Y-87970000D02*
X158560000Y-87970000D01*
X158150000Y-87560000D02*
X158150000Y-87210000D01*
X160590346Y-87989409D02*
X160570937Y-87970000D01*
X158560000Y-87970000D02*
X158150000Y-87560000D01*
%TO.N,P5*%
X158925000Y-88405000D02*
X156775000Y-88405000D01*
X156775000Y-88405000D02*
X156300000Y-87930000D01*
X158925000Y-87385000D02*
X158900000Y-87360000D01*
X158900000Y-87360000D02*
X158900000Y-87210000D01*
%TO.N,P19*%
X161140000Y-86060000D02*
X160130319Y-86060000D01*
X160130319Y-86060000D02*
X160095000Y-86095319D01*
%TO.N,R21*%
X161890000Y-86060000D02*
X161890000Y-86240000D01*
X159980000Y-86969756D02*
X159889756Y-86969756D01*
X161890000Y-86240000D02*
X161500000Y-86630000D01*
X161500000Y-86630000D02*
X160319756Y-86630000D01*
X160319756Y-86630000D02*
X159980000Y-86969756D01*
X159889756Y-86969756D02*
X159515000Y-86595000D01*
X159830001Y-84520243D02*
X159515000Y-84835244D01*
X159515000Y-84835244D02*
X159515000Y-86595000D01*
%TO.N,R5*%
X157125000Y-84455245D02*
X157319755Y-84650000D01*
X157890000Y-84650000D02*
X158150000Y-84910000D01*
X157319755Y-84650000D02*
X157890000Y-84650000D01*
%TO.N,R19*%
X161890000Y-83760000D02*
X161890000Y-84030000D01*
X161890000Y-84030000D02*
X161650000Y-84270000D01*
X156700000Y-83210000D02*
X155600000Y-83210000D01*
X161650000Y-84270000D02*
X160780000Y-84270000D01*
X159630000Y-83900000D02*
X159260000Y-84270000D01*
X160780000Y-84270000D02*
X160410000Y-83900000D01*
X160410000Y-83900000D02*
X159630000Y-83900000D01*
X159260000Y-84270000D02*
X157760000Y-84270000D01*
X155600000Y-83210000D02*
X155400000Y-83410000D01*
X157760000Y-84270000D02*
X156700000Y-83210000D01*
X155400000Y-83410000D02*
X155400000Y-83760000D01*
%TO.N,SCL*%
X156150000Y-84910000D02*
X156150000Y-85030000D01*
X156150000Y-85030000D02*
X155760000Y-85420000D01*
X155760000Y-85420000D02*
X155110000Y-85420000D01*
X155110000Y-85420000D02*
X154600000Y-85930000D01*
X154600000Y-85930000D02*
X154600000Y-86510660D01*
%TO.N,GND*%
X156738226Y-82682541D02*
X156222541Y-82682541D01*
X157000000Y-82713614D02*
X156769299Y-82713614D01*
X156222541Y-82682541D02*
X156150000Y-82610000D01*
X156769299Y-82713614D02*
X156738226Y-82682541D01*
%TO.N,R4*%
X158150000Y-83570000D02*
X158150000Y-83760000D01*
%TO.N,R3*%
X157335735Y-80344265D02*
X157640000Y-80648530D01*
X157640000Y-80648530D02*
X157640000Y-80697402D01*
X157640000Y-80697402D02*
X158120000Y-81177402D01*
X158120000Y-82580000D02*
X158150000Y-82610000D01*
X158120000Y-81177402D02*
X158120000Y-82580000D01*
%TO.N,R21*%
X159830001Y-84520243D02*
X159929283Y-84619525D01*
%TO.N,R20*%
X160618542Y-85510000D02*
X162440000Y-85510000D01*
X160509283Y-85400741D02*
X160618542Y-85510000D01*
X162440000Y-85510000D02*
X162440000Y-86660000D01*
X162440000Y-86660000D02*
X161890000Y-87210000D01*
%TO.N,P5*%
X156150000Y-87780000D02*
X156150000Y-87210000D01*
X156300000Y-87930000D02*
X156150000Y-87780000D01*
%TO.N,R20*%
X155400000Y-87210000D02*
X155400000Y-87940000D01*
X160367645Y-88660000D02*
X160740000Y-88660000D01*
X155400000Y-87940000D02*
X156300000Y-88840000D01*
X156300000Y-88840000D02*
X159304067Y-88840000D01*
X159304067Y-88840000D02*
X159514067Y-88630000D01*
X159514067Y-88630000D02*
X160337645Y-88630000D01*
X160740000Y-88660000D02*
X161890000Y-87510000D01*
X160337645Y-88630000D02*
X160367645Y-88660000D01*
X161890000Y-87510000D02*
X161890000Y-87210000D01*
%TO.N,GND*%
X166360000Y-76430000D02*
X166960000Y-75830000D01*
X152410000Y-78370000D02*
X153510000Y-79470000D01*
X156150000Y-81010000D02*
X156020000Y-80880000D01*
X156020000Y-80880000D02*
X154510000Y-80880000D01*
X156150000Y-81460000D02*
X156150000Y-81010000D01*
X153043568Y-80910000D02*
X152400000Y-80910000D01*
X154626587Y-82493019D02*
X153043568Y-80910000D01*
X166960000Y-75830000D02*
X167640000Y-75830000D01*
X152400000Y-78370000D02*
X152410000Y-78370000D01*
%TO.N,5V*%
X164130000Y-77530000D02*
X163991471Y-77530000D01*
X163890000Y-78628529D02*
X163890000Y-79160000D01*
X166480000Y-74450000D02*
X167640000Y-73290000D01*
X164184223Y-75332753D02*
X164430000Y-75578530D01*
X164430000Y-75578530D02*
X164430000Y-77230000D01*
X163640000Y-77881471D02*
X163640000Y-78378529D01*
X164430000Y-77230000D02*
X164130000Y-77530000D01*
X163991471Y-77530000D02*
X163640000Y-77881471D01*
X165610000Y-74450000D02*
X166480000Y-74450000D01*
X163640000Y-78378529D02*
X163890000Y-78628529D01*
%TO.N,3V*%
X167640000Y-80910000D02*
X166630000Y-80910000D01*
X164761587Y-81445015D02*
X164134985Y-81445015D01*
X164134985Y-81445015D02*
X163890000Y-81690000D01*
X163890000Y-81690000D02*
X163890000Y-82610000D01*
X166630000Y-80910000D02*
X166110000Y-81430000D01*
%TO.N,TX*%
X155037602Y-75647603D02*
X156181626Y-76791627D01*
X156181626Y-76791627D02*
X156181626Y-79128374D01*
X152400000Y-73290000D02*
X153020000Y-73290000D01*
X153020000Y-73290000D02*
X153746471Y-74016471D01*
X156181626Y-79128374D02*
X156150000Y-79160000D01*
X155030000Y-75647603D02*
X155037602Y-75647603D01*
%TO.N,RX*%
X156510000Y-80310000D02*
X156990000Y-79830000D01*
X152400000Y-75920000D02*
X153430000Y-76950000D01*
X156150000Y-80310000D02*
X156510000Y-80310000D01*
X156990000Y-77184213D02*
X156785787Y-76980000D01*
X152400000Y-75830000D02*
X152400000Y-75920000D01*
%TO.N,SDA*%
X154370481Y-84399638D02*
X154440119Y-84330000D01*
X156030000Y-84330000D02*
X156150000Y-84210000D01*
X154440119Y-84330000D02*
X156030000Y-84330000D01*
X156150000Y-84210000D02*
X156150000Y-83760000D01*
X152544237Y-83305763D02*
X152400000Y-83450000D01*
X153742273Y-83305763D02*
X152544237Y-83305763D01*
%TO.N,SCL*%
X153193194Y-87369137D02*
X153396826Y-87369137D01*
X153006933Y-87182876D02*
X153006933Y-86596933D01*
X153193194Y-87369137D02*
X153006933Y-87182876D01*
X153006933Y-86596933D02*
X152400000Y-85990000D01*
%TO.N,MISO*%
X166385959Y-96842571D02*
X166947429Y-96842571D01*
X163890000Y-97210000D02*
X163251263Y-97210000D01*
X160720000Y-97210000D02*
X161140000Y-97210000D01*
X166947429Y-96842571D02*
X167640000Y-96150000D01*
X163251263Y-97210000D02*
X163243443Y-97202180D01*
%TO.N,MOSI*%
X160570000Y-100160000D02*
X160590000Y-100140000D01*
X160590000Y-100140000D02*
X160590000Y-99130000D01*
X163173546Y-98410000D02*
X163223546Y-98360000D01*
X166780000Y-99550000D02*
X167640000Y-98690000D01*
X163223546Y-98360000D02*
X163890000Y-98360000D01*
X166030000Y-99550000D02*
X166780000Y-99550000D01*
X161140000Y-98580000D02*
X161140000Y-98360000D01*
X160590000Y-99130000D02*
X161140000Y-98580000D01*
%TO.N,SCLK*%
X167050000Y-94200000D02*
X167640000Y-93610000D01*
X161140000Y-96060000D02*
X160380000Y-96060000D01*
X163890000Y-95411471D02*
X164111471Y-95190000D01*
X164111471Y-95190000D02*
X165820000Y-95190000D01*
X165820000Y-95190000D02*
X166810000Y-94200000D01*
X166810000Y-94200000D02*
X167050000Y-94200000D01*
X163890000Y-96060000D02*
X163890000Y-95411471D01*
X163890000Y-95411471D02*
X163228529Y-94750000D01*
X160380000Y-96060000D02*
X160274265Y-95954265D01*
X163228529Y-94750000D02*
X161700000Y-94750000D01*
%TO.N,P9*%
X158900000Y-100241470D02*
X159024265Y-100365735D01*
X158900000Y-99510000D02*
X158900000Y-100241470D01*
X153075000Y-101905000D02*
X152400000Y-101230000D01*
X152442843Y-101272843D02*
X152400000Y-101230000D01*
X157700786Y-101305000D02*
X156245000Y-101305000D01*
X155645000Y-101905000D02*
X153075000Y-101905000D01*
X156880000Y-99680000D02*
X156710000Y-99510000D01*
X156710000Y-99510000D02*
X156150000Y-99510000D01*
X156245000Y-101305000D02*
X155645000Y-101905000D01*
%TO.N,P10*%
X163890000Y-100140000D02*
X163890000Y-99510000D01*
X162250000Y-98910000D02*
X161390000Y-98910000D01*
X163890000Y-99510000D02*
X163402577Y-99997423D01*
X162640365Y-99997423D02*
X162440000Y-99797058D01*
X165740000Y-101200000D02*
X167610000Y-101200000D01*
X162440000Y-99100000D02*
X162250000Y-98910000D01*
X161390000Y-98910000D02*
X161140000Y-99160000D01*
X163402577Y-99997423D02*
X162640365Y-99997423D01*
X167610000Y-101200000D02*
X167640000Y-101230000D01*
X161140000Y-99160000D02*
X161140000Y-99510000D01*
X162440000Y-99797058D02*
X162440000Y-99100000D01*
X163992892Y-100242892D02*
X163890000Y-100140000D01*
%TO.N,P18*%
X161140000Y-87210000D02*
X160560000Y-87210000D01*
X164961473Y-91678527D02*
X167031473Y-91678527D01*
X167031473Y-91678527D02*
X167640000Y-91070000D01*
X164500000Y-92140000D02*
X164961473Y-91678527D01*
X163890000Y-88390000D02*
X164090000Y-88590000D01*
X163890000Y-87210000D02*
X163890000Y-88390000D01*
%TO.N,P8*%
X156150000Y-98360000D02*
X156520000Y-98360000D01*
X156520000Y-98360000D02*
X157000000Y-98840000D01*
X154644315Y-100505000D02*
X154644315Y-99335685D01*
X155900000Y-98960000D02*
X156150000Y-98710000D01*
X152400000Y-98690000D02*
X152400000Y-98935875D01*
X156150000Y-98710000D02*
X156150000Y-98360000D01*
X158900000Y-98360000D02*
X159189998Y-98360000D01*
X152400000Y-98935875D02*
X153155217Y-99691092D01*
X154644315Y-99335685D02*
X155020000Y-98960000D01*
X155020000Y-98960000D02*
X155900000Y-98960000D01*
%TO.N,P7*%
X156706471Y-97233529D02*
X156173529Y-97233529D01*
X152950001Y-96700001D02*
X152400000Y-96150000D01*
X158900000Y-97170000D02*
X158900000Y-97210000D01*
X152950001Y-96834053D02*
X152950001Y-96700001D01*
X158900000Y-97170000D02*
X158980000Y-97090000D01*
X156173529Y-97233529D02*
X156150000Y-97210000D01*
%TO.N,P4*%
X153491470Y-88530000D02*
X152400000Y-88530000D01*
X154351470Y-89390000D02*
X153491470Y-88530000D01*
%TO.N,P5*%
X153591232Y-89639084D02*
X153591232Y-89878768D01*
X153591232Y-89878768D02*
X152400000Y-91070000D01*
%TO.N,P6*%
X153117884Y-92480000D02*
X155810000Y-92480000D01*
X156150000Y-95065000D02*
X156150000Y-96060000D01*
X155810000Y-92480000D02*
X156190000Y-92860000D01*
X152400000Y-93610000D02*
X152400000Y-93197884D01*
X152400000Y-93197884D02*
X153117884Y-92480000D01*
X158900000Y-94900000D02*
X158880000Y-94880000D01*
X158900000Y-96060000D02*
X158900000Y-94900000D01*
%TO.N,P21*%
X167210000Y-83160000D02*
X164140000Y-83160000D01*
X167640000Y-83450000D02*
X167280000Y-83090000D01*
X163890000Y-83410000D02*
X163890000Y-83760000D01*
X164140000Y-83160000D02*
X163890000Y-83410000D01*
X167280000Y-83090000D02*
X167210000Y-83160000D01*
%TO.N,P20*%
X163440000Y-85351743D02*
X163448257Y-85351743D01*
X167640000Y-85990000D02*
X167640000Y-86224708D01*
X167640000Y-86224708D02*
X166810000Y-87054708D01*
X163448257Y-85351743D02*
X163890000Y-84910000D01*
%TO.N,P19*%
X163072031Y-88610000D02*
X163340000Y-88342031D01*
X163340000Y-88342031D02*
X163340000Y-86610000D01*
X163340000Y-86610000D02*
X163890000Y-86060000D01*
X162980000Y-91090000D02*
X165080000Y-91090000D01*
X165080000Y-91090000D02*
X167640000Y-88530000D01*
%TO.N,R1*%
X158150000Y-79160000D02*
X158150000Y-76930000D01*
X164640000Y-79160000D02*
X164640000Y-78530000D01*
X164640000Y-78530000D02*
X164240000Y-78130000D01*
X158150000Y-76930000D02*
X155340000Y-74120000D01*
%TO.N,R2*%
X154430000Y-75030000D02*
X154430000Y-79978529D01*
X154430000Y-79978529D02*
X153910000Y-80498529D01*
X155659313Y-75004999D02*
X157530000Y-76875686D01*
X155320000Y-81540000D02*
X155400000Y-81460000D01*
X154250000Y-81540000D02*
X155320000Y-81540000D01*
X157530000Y-79690000D02*
X158150000Y-80310000D01*
X154455001Y-75004999D02*
X155659313Y-75004999D01*
X155400000Y-81460000D02*
X155400000Y-82610000D01*
X153910000Y-80498529D02*
X153910000Y-81200000D01*
X154455001Y-75004999D02*
X154430000Y-75030000D01*
X157530000Y-76875686D02*
X157530000Y-79690000D01*
X153910000Y-81200000D02*
X154250000Y-81540000D01*
%TO.N,R3*%
X153855001Y-75253528D02*
X153855001Y-74756470D01*
X162600000Y-72900000D02*
X165490000Y-75790000D01*
X155711471Y-72900000D02*
X162600000Y-72900000D01*
X153855001Y-74756470D02*
X155711471Y-72900000D01*
X154030000Y-75428527D02*
X153855001Y-75253528D01*
X153830000Y-78370000D02*
X154030000Y-78170000D01*
X154030000Y-78170000D02*
X154030000Y-75428527D01*
X165490000Y-75790000D02*
X165490000Y-82470000D01*
X165490000Y-82470000D02*
X165350000Y-82610000D01*
X165350000Y-82610000D02*
X164640000Y-82610000D01*
%TO.N,R4*%
X153600000Y-86927414D02*
X153796826Y-87124240D01*
X153365039Y-82080000D02*
X153647882Y-82080000D01*
X166210000Y-88475686D02*
X166210000Y-85330000D01*
X153796826Y-87124240D02*
X153796826Y-87986826D01*
X154026588Y-82741549D02*
X154342273Y-83057234D01*
X153796826Y-87986826D02*
X156300000Y-90490000D01*
X153600000Y-84300000D02*
X153600000Y-86927414D01*
X153647882Y-82080000D02*
X154026588Y-82458706D01*
X154026588Y-82458706D02*
X154026588Y-82741549D01*
X166210000Y-85330000D02*
X164640000Y-83760000D01*
X153247226Y-81962187D02*
X153365039Y-82080000D01*
X154342273Y-83557727D02*
X153600000Y-84300000D01*
X156300000Y-90490000D02*
X164195686Y-90490000D01*
X164195686Y-90490000D02*
X166210000Y-88475686D01*
X154342273Y-83057234D02*
X154342273Y-83557727D01*
%TO.N,R8*%
X157600000Y-100198530D02*
X157600000Y-98590000D01*
X153770000Y-97820610D02*
X153550000Y-98040610D01*
X155479314Y-101505000D02*
X156079314Y-100905000D01*
X153644315Y-100919215D02*
X154230100Y-101505000D01*
X154230100Y-101505000D02*
X155479314Y-101505000D01*
X153692852Y-93093163D02*
X153692852Y-94570089D01*
X164260000Y-101390000D02*
X165430000Y-100220000D01*
X165070000Y-98360000D02*
X164640000Y-98360000D01*
X153844315Y-99838629D02*
X153644315Y-100038629D01*
X156893530Y-100905000D02*
X157600000Y-100198530D01*
X153550000Y-97011371D02*
X153770000Y-97231370D01*
X165430000Y-98720000D02*
X165070000Y-98360000D01*
X157600000Y-100198530D02*
X157750000Y-100348530D01*
X153455000Y-95578654D02*
X153550000Y-95673654D01*
X157830000Y-98360000D02*
X158150000Y-98360000D01*
X153844315Y-99203402D02*
X153844315Y-99838629D01*
X153550000Y-95673654D02*
X153550000Y-97011371D01*
X153550000Y-98040610D02*
X153550000Y-98909087D01*
X157750000Y-100505686D02*
X158634314Y-101390000D01*
X153770000Y-97231370D02*
X153770000Y-97820610D01*
X157600000Y-98590000D02*
X157830000Y-98360000D01*
X153644315Y-100038629D02*
X153644315Y-100919215D01*
X153455000Y-94807941D02*
X153455000Y-95578654D01*
X157750000Y-100348530D02*
X157750000Y-100505686D01*
X153550000Y-98909087D02*
X153844315Y-99203402D01*
X165430000Y-100220000D02*
X165430000Y-98720000D01*
X156079314Y-100905000D02*
X156893530Y-100905000D01*
X158634314Y-101390000D02*
X164260000Y-101390000D01*
X153692852Y-94570089D02*
X153455000Y-94807941D01*
%TO.N,R9*%
X163190000Y-96460000D02*
X163340000Y-96610000D01*
X157795214Y-96264368D02*
X157945632Y-96264368D01*
X162440000Y-96460000D02*
X163190000Y-96460000D01*
X162290000Y-96610000D02*
X162440000Y-96460000D01*
X164640000Y-96510000D02*
X164640000Y-96060000D01*
X159770000Y-96980000D02*
X160101471Y-96980000D01*
X158020846Y-96490000D02*
X158230000Y-96490000D01*
X163340000Y-96610000D02*
X164540000Y-96610000D01*
X159400000Y-96610000D02*
X159770000Y-96980000D01*
X158230000Y-96490000D02*
X158350000Y-96610000D01*
X160471471Y-96610000D02*
X162290000Y-96610000D01*
X157945632Y-96264368D02*
X158150000Y-96060000D01*
X164540000Y-96610000D02*
X164640000Y-96510000D01*
X158350000Y-96610000D02*
X159400000Y-96610000D01*
X160101471Y-96980000D02*
X160471471Y-96610000D01*
X157795214Y-96264368D02*
X158020846Y-96490000D01*
%TO.N,R10*%
X154350000Y-96680000D02*
X154880000Y-97210000D01*
X154920000Y-95040000D02*
X154350000Y-95610000D01*
X162423556Y-97210000D02*
X161890000Y-97210000D01*
X154350000Y-95610000D02*
X154350000Y-96680000D01*
X154880000Y-97210000D02*
X155400000Y-97210000D01*
X162443533Y-97190023D02*
X162423556Y-97210000D01*
%TO.N,R11*%
X156890000Y-96568529D02*
X157440000Y-97118529D01*
X157440000Y-97118529D02*
X157440000Y-97770000D01*
X162275017Y-98360000D02*
X161890000Y-98360000D01*
X156890000Y-95368721D02*
X156890000Y-96568529D01*
X163069239Y-99208157D02*
X163069239Y-99154222D01*
X157240000Y-97970000D02*
X156700000Y-97970000D01*
X156700000Y-97970000D02*
X156540000Y-97810000D01*
X157440000Y-97770000D02*
X157240000Y-97970000D01*
X154550000Y-98494875D02*
X154684875Y-98360000D01*
X156948721Y-95310000D02*
X156890000Y-95368721D01*
X156540000Y-97810000D02*
X155600000Y-97810000D01*
X155400000Y-98010000D02*
X155400000Y-98360000D01*
X154684875Y-98360000D02*
X155400000Y-98360000D01*
X155600000Y-97810000D02*
X155400000Y-98010000D01*
X163069239Y-99154222D02*
X162275017Y-98360000D01*
%TO.N,R12*%
X153950000Y-98743402D02*
X154244315Y-99037717D01*
X153950000Y-98206295D02*
X153950000Y-98743402D01*
X154400000Y-97756295D02*
X153950000Y-98206295D01*
X154244315Y-99037717D02*
X154244315Y-100004315D01*
X154044315Y-100204315D02*
X154044315Y-100753529D01*
X154244315Y-100004315D02*
X154044315Y-100204315D01*
X153950000Y-95161470D02*
X153950000Y-96845685D01*
X161890000Y-99960000D02*
X161890000Y-99510000D01*
X155400000Y-100640000D02*
X155400000Y-99510000D01*
X161450000Y-100390000D02*
X161460000Y-100390000D01*
X153950000Y-96845685D02*
X154400000Y-97295685D01*
X161460000Y-100390000D02*
X161890000Y-99960000D01*
X154044315Y-100753529D02*
X154395786Y-101105000D01*
X154395786Y-101105000D02*
X154935000Y-101105000D01*
X154055000Y-95056470D02*
X153950000Y-95161470D01*
X154400000Y-97295685D02*
X154400000Y-97756295D01*
X154935000Y-101105000D02*
X155400000Y-100640000D01*
%TO.N,R13*%
X159839998Y-98960000D02*
X158250000Y-98960000D01*
X164640000Y-99510000D02*
X164640000Y-100444314D01*
X164640000Y-100444314D02*
X164094314Y-100990000D01*
X160389998Y-98410000D02*
X159839998Y-98960000D01*
X158150000Y-100340000D02*
X158150000Y-99510000D01*
X164094314Y-100990000D02*
X158800000Y-100990000D01*
X158800000Y-100990000D02*
X158150000Y-100340000D01*
X158150000Y-99060000D02*
X158150000Y-99510000D01*
X158250000Y-98960000D02*
X158150000Y-99060000D01*
%TO.N,R14*%
X164737892Y-87967892D02*
X164640000Y-87870000D01*
X164640000Y-87870000D02*
X164640000Y-87210000D01*
%TO.N,R15*%
X158941469Y-97760000D02*
X159438527Y-97760000D01*
X158891469Y-97810000D02*
X158941469Y-97760000D01*
X159438527Y-97760000D02*
X159488527Y-97810000D01*
X164490000Y-97810000D02*
X164640000Y-97660000D01*
X158150000Y-97210000D02*
X158150000Y-97640000D01*
X166100000Y-96050000D02*
X166100000Y-96280000D01*
X165170000Y-97210000D02*
X164640000Y-97210000D01*
X159488527Y-97810000D02*
X164490000Y-97810000D01*
X164640000Y-97660000D02*
X164640000Y-97210000D01*
X158320000Y-97810000D02*
X158891469Y-97810000D01*
X158150000Y-97640000D02*
X158320000Y-97810000D01*
X166100000Y-96280000D02*
X165170000Y-97210000D01*
%TO.N,R16*%
X155990000Y-94130000D02*
X155520000Y-94600000D01*
X160861471Y-94760000D02*
X159760000Y-94760000D01*
X163080000Y-95450000D02*
X161551471Y-95450000D01*
X159760000Y-94760000D02*
X159090000Y-94090000D01*
X161551471Y-95450000D02*
X160861471Y-94760000D01*
X158430000Y-94090000D02*
X157960000Y-94560000D01*
X162550000Y-96060000D02*
X161890000Y-96060000D01*
X163120000Y-95490000D02*
X163080000Y-95450000D01*
X159090000Y-94090000D02*
X158430000Y-94090000D01*
X163120000Y-95490000D02*
X162550000Y-96060000D01*
X157960000Y-94560000D02*
X157080000Y-94560000D01*
X156650000Y-94130000D02*
X155990000Y-94130000D01*
X157080000Y-94560000D02*
X156650000Y-94130000D01*
X155520000Y-94600000D02*
X155520000Y-95940000D01*
X155520000Y-95940000D02*
X155400000Y-96060000D01*
%TO.N,R18*%
X162590000Y-84910000D02*
X161890000Y-84910000D01*
X162910000Y-84590000D02*
X162590000Y-84910000D01*
%TO.N,R19*%
X162110000Y-83540000D02*
X161890000Y-83760000D01*
X162900000Y-83540000D02*
X162110000Y-83540000D01*
%TO.N,R22*%
X154850000Y-79760000D02*
X155400000Y-80310000D01*
X155301704Y-77626196D02*
X155301704Y-77638296D01*
X154850000Y-78090000D02*
X154850000Y-79760000D01*
X155301704Y-77638296D02*
X154850000Y-78090000D01*
%TO.N,R23*%
X155400000Y-78557254D02*
X155400000Y-79160000D01*
X155581626Y-78375628D02*
X155400000Y-78557254D01*
%TO.N,R21*%
X159515000Y-86595000D02*
X159410000Y-86700000D01*
X159410000Y-86700000D02*
X157800000Y-86700000D01*
X157800000Y-86700000D02*
X157350000Y-87150000D01*
X156410000Y-86610000D02*
X155630000Y-86610000D01*
X157350000Y-87150000D02*
X156950000Y-87150000D01*
X156950000Y-87150000D02*
X156410000Y-86610000D01*
X155630000Y-86610000D02*
X155400000Y-86380000D01*
X155400000Y-86380000D02*
X155400000Y-86060000D01*
%TO.N,GND*%
X158865000Y-81865000D02*
X158655000Y-81865000D01*
X159295000Y-81435000D02*
X158865000Y-81865000D01*
X161115000Y-81435000D02*
X159295000Y-81435000D01*
X161140000Y-81460000D02*
X161115000Y-81435000D01*
%TD*%
M02*
