%TF.GenerationSoftware,KiCad,Pcbnew,8.0.3+1*%
%TF.CreationDate,2024-06-24T22:52:18-04:00*%
%TF.ProjectId,RP2040_ZERO_REV,52503230-3430-45f5-9a45-524f5f524556,rev?*%
%TF.SameCoordinates,Original*%
%TF.FileFunction,Drillmap*%
%TF.FilePolarity,Positive*%
%FSLAX45Y45*%
G04 Gerber Fmt 4.5, Leading zero omitted, Abs format (unit mm)*
G04 Created by KiCad (PCBNEW 8.0.3+1) date 2024-06-24 22:52:18*
%MOMM*%
%LPD*%
G01*
G04 APERTURE LIST*
%ADD10C,0.050000*%
%ADD11C,0.200000*%
G04 APERTURE END LIST*
D10*
X15240000Y-8980500D02*
G75*
G02*
X15240000Y-8725500I0J127500D01*
G01*
X16764000Y-9995500D02*
G75*
G02*
X16764000Y-10250500I0J-127500D01*
G01*
X16764000Y-8979500D02*
G75*
G02*
X16764000Y-9234500I0J-127500D01*
G01*
X15240000Y-7710500D02*
G75*
G02*
X15240000Y-7455500I0J127500D01*
G01*
X15240000Y-9996500D02*
G75*
G02*
X15240000Y-9741500I0J127500D01*
G01*
X15240000Y-8218500D02*
G75*
G02*
X15240000Y-7963500I0J127500D01*
G01*
X16764000Y-7456500D02*
G75*
G02*
X16764000Y-7711500I0J-127500D01*
G01*
X15240000Y-9742500D02*
G75*
G02*
X15240000Y-9487500I0J127500D01*
G01*
X15240000Y-7964500D02*
G75*
G02*
X15240000Y-7709500I0J127500D01*
G01*
X16764000Y-7201500D02*
X15240000Y-7201500D01*
X15240000Y-9488500D02*
G75*
G02*
X15240000Y-9233500I0J127500D01*
G01*
X15240000Y-8726500D02*
G75*
G02*
X15240000Y-8471500I0J127500D01*
G01*
X15240000Y-10250500D02*
G75*
G02*
X15240000Y-9995500I0J127500D01*
G01*
X16764000Y-7964500D02*
G75*
G02*
X16764000Y-8219500I0J-127500D01*
G01*
X16764000Y-8471500D02*
G75*
G02*
X16764000Y-8726500I0J-127500D01*
G01*
X15240000Y-9234500D02*
G75*
G02*
X15240000Y-8979500I0J127500D01*
G01*
X16764000Y-9741500D02*
G75*
G02*
X16764000Y-9996500I0J-127500D01*
G01*
X15240000Y-8472500D02*
G75*
G02*
X15240000Y-8217500I0J127500D01*
G01*
X16764000Y-9233500D02*
G75*
G02*
X16764000Y-9488500I0J-127500D01*
G01*
X16764000Y-7201500D02*
G75*
G02*
X16764000Y-7456500I0J-127500D01*
G01*
X16764000Y-8217500D02*
G75*
G02*
X16764000Y-8472500I0J-127500D01*
G01*
X15240000Y-10250500D02*
X16764000Y-10250500D01*
X16764000Y-9487500D02*
G75*
G02*
X16764000Y-9742500I0J-127500D01*
G01*
X16764000Y-8725500D02*
G75*
G02*
X16764000Y-8980500I0J-127500D01*
G01*
X16764000Y-7709500D02*
G75*
G02*
X16764000Y-7964500I0J-127500D01*
G01*
X15240000Y-7456500D02*
G75*
G02*
X15240000Y-7201500I0J127500D01*
G01*
D11*
X15370777Y-10564484D02*
X15370777Y-10364484D01*
X15370777Y-10364484D02*
X15418396Y-10364484D01*
X15418396Y-10364484D02*
X15446967Y-10374008D01*
X15446967Y-10374008D02*
X15466015Y-10393055D01*
X15466015Y-10393055D02*
X15475539Y-10412103D01*
X15475539Y-10412103D02*
X15485062Y-10450198D01*
X15485062Y-10450198D02*
X15485062Y-10478770D01*
X15485062Y-10478770D02*
X15475539Y-10516865D01*
X15475539Y-10516865D02*
X15466015Y-10535912D01*
X15466015Y-10535912D02*
X15446967Y-10554960D01*
X15446967Y-10554960D02*
X15418396Y-10564484D01*
X15418396Y-10564484D02*
X15370777Y-10564484D01*
X15570777Y-10564484D02*
X15570777Y-10431150D01*
X15570777Y-10469246D02*
X15580301Y-10450198D01*
X15580301Y-10450198D02*
X15589824Y-10440674D01*
X15589824Y-10440674D02*
X15608872Y-10431150D01*
X15608872Y-10431150D02*
X15627920Y-10431150D01*
X15694586Y-10564484D02*
X15694586Y-10431150D01*
X15694586Y-10364484D02*
X15685062Y-10374008D01*
X15685062Y-10374008D02*
X15694586Y-10383531D01*
X15694586Y-10383531D02*
X15704110Y-10374008D01*
X15704110Y-10374008D02*
X15694586Y-10364484D01*
X15694586Y-10364484D02*
X15694586Y-10383531D01*
X15818396Y-10564484D02*
X15799348Y-10554960D01*
X15799348Y-10554960D02*
X15789824Y-10535912D01*
X15789824Y-10535912D02*
X15789824Y-10364484D01*
X15923158Y-10564484D02*
X15904110Y-10554960D01*
X15904110Y-10554960D02*
X15894586Y-10535912D01*
X15894586Y-10535912D02*
X15894586Y-10364484D01*
X16151729Y-10564484D02*
X16151729Y-10364484D01*
X16151729Y-10364484D02*
X16218396Y-10507341D01*
X16218396Y-10507341D02*
X16285062Y-10364484D01*
X16285062Y-10364484D02*
X16285062Y-10564484D01*
X16466015Y-10564484D02*
X16466015Y-10459722D01*
X16466015Y-10459722D02*
X16456491Y-10440674D01*
X16456491Y-10440674D02*
X16437443Y-10431150D01*
X16437443Y-10431150D02*
X16399348Y-10431150D01*
X16399348Y-10431150D02*
X16380301Y-10440674D01*
X16466015Y-10554960D02*
X16446967Y-10564484D01*
X16446967Y-10564484D02*
X16399348Y-10564484D01*
X16399348Y-10564484D02*
X16380301Y-10554960D01*
X16380301Y-10554960D02*
X16370777Y-10535912D01*
X16370777Y-10535912D02*
X16370777Y-10516865D01*
X16370777Y-10516865D02*
X16380301Y-10497817D01*
X16380301Y-10497817D02*
X16399348Y-10488293D01*
X16399348Y-10488293D02*
X16446967Y-10488293D01*
X16446967Y-10488293D02*
X16466015Y-10478770D01*
X16561253Y-10431150D02*
X16561253Y-10631150D01*
X16561253Y-10440674D02*
X16580301Y-10431150D01*
X16580301Y-10431150D02*
X16618396Y-10431150D01*
X16618396Y-10431150D02*
X16637443Y-10440674D01*
X16637443Y-10440674D02*
X16646967Y-10450198D01*
X16646967Y-10450198D02*
X16656491Y-10469246D01*
X16656491Y-10469246D02*
X16656491Y-10526389D01*
X16656491Y-10526389D02*
X16646967Y-10545436D01*
X16646967Y-10545436D02*
X16637443Y-10554960D01*
X16637443Y-10554960D02*
X16618396Y-10564484D01*
X16618396Y-10564484D02*
X16580301Y-10564484D01*
X16580301Y-10564484D02*
X16561253Y-10554960D01*
X16742205Y-10545436D02*
X16751729Y-10554960D01*
X16751729Y-10554960D02*
X16742205Y-10564484D01*
X16742205Y-10564484D02*
X16732682Y-10554960D01*
X16732682Y-10554960D02*
X16742205Y-10545436D01*
X16742205Y-10545436D02*
X16742205Y-10564484D01*
X16742205Y-10440674D02*
X16751729Y-10450198D01*
X16751729Y-10450198D02*
X16742205Y-10459722D01*
X16742205Y-10459722D02*
X16732682Y-10450198D01*
X16732682Y-10450198D02*
X16742205Y-10440674D01*
X16742205Y-10440674D02*
X16742205Y-10459722D01*
M02*
