%TF.GenerationSoftware,KiCad,Pcbnew,8.0.3+1*%
%TF.CreationDate,2024-06-24T22:52:21-04:00*%
%TF.ProjectId,RP2040_ZERO_REV,52503230-3430-45f5-9a45-524f5f524556,rev?*%
%TF.SameCoordinates,Original*%
%TF.FileFunction,Legend,Bot*%
%TF.FilePolarity,Positive*%
%FSLAX46Y46*%
G04 Gerber Fmt 4.6, Leading zero omitted, Abs format (unit mm)*
G04 Created by KiCad (PCBNEW 8.0.3+1) date 2024-06-24 22:52:21*
%MOMM*%
%LPD*%
G01*
G04 APERTURE LIST*
%ADD10C,0.100000*%
G04 APERTURE END LIST*
D10*
X158060476Y-89092419D02*
X158393809Y-88616228D01*
X158631904Y-89092419D02*
X158631904Y-88092419D01*
X158631904Y-88092419D02*
X158250952Y-88092419D01*
X158250952Y-88092419D02*
X158155714Y-88140038D01*
X158155714Y-88140038D02*
X158108095Y-88187657D01*
X158108095Y-88187657D02*
X158060476Y-88282895D01*
X158060476Y-88282895D02*
X158060476Y-88425752D01*
X158060476Y-88425752D02*
X158108095Y-88520990D01*
X158108095Y-88520990D02*
X158155714Y-88568609D01*
X158155714Y-88568609D02*
X158250952Y-88616228D01*
X158250952Y-88616228D02*
X158631904Y-88616228D01*
X163700476Y-89042419D02*
X164176666Y-89042419D01*
X164176666Y-89042419D02*
X164176666Y-88042419D01*
X155520476Y-89092419D02*
X155996666Y-89092419D01*
X155996666Y-89092419D02*
X155996666Y-88092419D01*
X164329999Y-74402531D02*
X164329999Y-73402531D01*
X164329999Y-73402531D02*
X163949047Y-73402531D01*
X163949047Y-73402531D02*
X163853809Y-73450150D01*
X163853809Y-73450150D02*
X163806190Y-73497769D01*
X163806190Y-73497769D02*
X163758571Y-73593007D01*
X163758571Y-73593007D02*
X163758571Y-73735864D01*
X163758571Y-73735864D02*
X163806190Y-73831102D01*
X163806190Y-73831102D02*
X163853809Y-73878721D01*
X163853809Y-73878721D02*
X163949047Y-73926340D01*
X163949047Y-73926340D02*
X164329999Y-73926340D01*
X162758571Y-74402531D02*
X163091904Y-73926340D01*
X163329999Y-74402531D02*
X163329999Y-73402531D01*
X163329999Y-73402531D02*
X162949047Y-73402531D01*
X162949047Y-73402531D02*
X162853809Y-73450150D01*
X162853809Y-73450150D02*
X162806190Y-73497769D01*
X162806190Y-73497769D02*
X162758571Y-73593007D01*
X162758571Y-73593007D02*
X162758571Y-73735864D01*
X162758571Y-73735864D02*
X162806190Y-73831102D01*
X162806190Y-73831102D02*
X162853809Y-73878721D01*
X162853809Y-73878721D02*
X162949047Y-73926340D01*
X162949047Y-73926340D02*
X163329999Y-73926340D01*
X162139523Y-73402531D02*
X161949047Y-73402531D01*
X161949047Y-73402531D02*
X161853809Y-73450150D01*
X161853809Y-73450150D02*
X161758571Y-73545388D01*
X161758571Y-73545388D02*
X161710952Y-73735864D01*
X161710952Y-73735864D02*
X161710952Y-74069197D01*
X161710952Y-74069197D02*
X161758571Y-74259673D01*
X161758571Y-74259673D02*
X161853809Y-74354912D01*
X161853809Y-74354912D02*
X161949047Y-74402531D01*
X161949047Y-74402531D02*
X162139523Y-74402531D01*
X162139523Y-74402531D02*
X162234761Y-74354912D01*
X162234761Y-74354912D02*
X162329999Y-74259673D01*
X162329999Y-74259673D02*
X162377618Y-74069197D01*
X162377618Y-74069197D02*
X162377618Y-73735864D01*
X162377618Y-73735864D02*
X162329999Y-73545388D01*
X162329999Y-73545388D02*
X162234761Y-73450150D01*
X162234761Y-73450150D02*
X162139523Y-73402531D01*
X160520475Y-74402531D02*
X160520475Y-73402531D01*
X160520475Y-73402531D02*
X160187142Y-74116816D01*
X160187142Y-74116816D02*
X159853809Y-73402531D01*
X159853809Y-73402531D02*
X159853809Y-74402531D01*
X159377618Y-74402531D02*
X159377618Y-73402531D01*
X158330000Y-74307292D02*
X158377619Y-74354912D01*
X158377619Y-74354912D02*
X158520476Y-74402531D01*
X158520476Y-74402531D02*
X158615714Y-74402531D01*
X158615714Y-74402531D02*
X158758571Y-74354912D01*
X158758571Y-74354912D02*
X158853809Y-74259673D01*
X158853809Y-74259673D02*
X158901428Y-74164435D01*
X158901428Y-74164435D02*
X158949047Y-73973959D01*
X158949047Y-73973959D02*
X158949047Y-73831102D01*
X158949047Y-73831102D02*
X158901428Y-73640626D01*
X158901428Y-73640626D02*
X158853809Y-73545388D01*
X158853809Y-73545388D02*
X158758571Y-73450150D01*
X158758571Y-73450150D02*
X158615714Y-73402531D01*
X158615714Y-73402531D02*
X158520476Y-73402531D01*
X158520476Y-73402531D02*
X158377619Y-73450150D01*
X158377619Y-73450150D02*
X158330000Y-73497769D01*
X157330000Y-74402531D02*
X157663333Y-73926340D01*
X157901428Y-74402531D02*
X157901428Y-73402531D01*
X157901428Y-73402531D02*
X157520476Y-73402531D01*
X157520476Y-73402531D02*
X157425238Y-73450150D01*
X157425238Y-73450150D02*
X157377619Y-73497769D01*
X157377619Y-73497769D02*
X157330000Y-73593007D01*
X157330000Y-73593007D02*
X157330000Y-73735864D01*
X157330000Y-73735864D02*
X157377619Y-73831102D01*
X157377619Y-73831102D02*
X157425238Y-73878721D01*
X157425238Y-73878721D02*
X157520476Y-73926340D01*
X157520476Y-73926340D02*
X157901428Y-73926340D01*
X156710952Y-73402531D02*
X156520476Y-73402531D01*
X156520476Y-73402531D02*
X156425238Y-73450150D01*
X156425238Y-73450150D02*
X156330000Y-73545388D01*
X156330000Y-73545388D02*
X156282381Y-73735864D01*
X156282381Y-73735864D02*
X156282381Y-74069197D01*
X156282381Y-74069197D02*
X156330000Y-74259673D01*
X156330000Y-74259673D02*
X156425238Y-74354912D01*
X156425238Y-74354912D02*
X156520476Y-74402531D01*
X156520476Y-74402531D02*
X156710952Y-74402531D01*
X156710952Y-74402531D02*
X156806190Y-74354912D01*
X156806190Y-74354912D02*
X156901428Y-74259673D01*
X156901428Y-74259673D02*
X156949047Y-74069197D01*
X156949047Y-74069197D02*
X156949047Y-73735864D01*
X156949047Y-73735864D02*
X156901428Y-73545388D01*
X156901428Y-73545388D02*
X156806190Y-73450150D01*
X156806190Y-73450150D02*
X156710952Y-73402531D01*
X164091904Y-76012475D02*
X164091904Y-75012475D01*
X164091904Y-75012475D02*
X163710952Y-75012475D01*
X163710952Y-75012475D02*
X163615714Y-75060094D01*
X163615714Y-75060094D02*
X163568095Y-75107713D01*
X163568095Y-75107713D02*
X163520476Y-75202951D01*
X163520476Y-75202951D02*
X163520476Y-75345808D01*
X163520476Y-75345808D02*
X163568095Y-75441046D01*
X163568095Y-75441046D02*
X163615714Y-75488665D01*
X163615714Y-75488665D02*
X163710952Y-75536284D01*
X163710952Y-75536284D02*
X164091904Y-75536284D01*
X163091904Y-76012475D02*
X163091904Y-75012475D01*
X162615714Y-76012475D02*
X162615714Y-75012475D01*
X162615714Y-75012475D02*
X162044286Y-76012475D01*
X162044286Y-76012475D02*
X162044286Y-75012475D01*
X161615714Y-75964856D02*
X161472857Y-76012475D01*
X161472857Y-76012475D02*
X161234762Y-76012475D01*
X161234762Y-76012475D02*
X161139524Y-75964856D01*
X161139524Y-75964856D02*
X161091905Y-75917236D01*
X161091905Y-75917236D02*
X161044286Y-75821998D01*
X161044286Y-75821998D02*
X161044286Y-75726760D01*
X161044286Y-75726760D02*
X161091905Y-75631522D01*
X161091905Y-75631522D02*
X161139524Y-75583903D01*
X161139524Y-75583903D02*
X161234762Y-75536284D01*
X161234762Y-75536284D02*
X161425238Y-75488665D01*
X161425238Y-75488665D02*
X161520476Y-75441046D01*
X161520476Y-75441046D02*
X161568095Y-75393427D01*
X161568095Y-75393427D02*
X161615714Y-75298189D01*
X161615714Y-75298189D02*
X161615714Y-75202951D01*
X161615714Y-75202951D02*
X161568095Y-75107713D01*
X161568095Y-75107713D02*
X161520476Y-75060094D01*
X161520476Y-75060094D02*
X161425238Y-75012475D01*
X161425238Y-75012475D02*
X161187143Y-75012475D01*
X161187143Y-75012475D02*
X161044286Y-75060094D01*
X159663333Y-75012475D02*
X159472857Y-75012475D01*
X159472857Y-75012475D02*
X159377619Y-75060094D01*
X159377619Y-75060094D02*
X159282381Y-75155332D01*
X159282381Y-75155332D02*
X159234762Y-75345808D01*
X159234762Y-75345808D02*
X159234762Y-75679141D01*
X159234762Y-75679141D02*
X159282381Y-75869617D01*
X159282381Y-75869617D02*
X159377619Y-75964856D01*
X159377619Y-75964856D02*
X159472857Y-76012475D01*
X159472857Y-76012475D02*
X159663333Y-76012475D01*
X159663333Y-76012475D02*
X159758571Y-75964856D01*
X159758571Y-75964856D02*
X159853809Y-75869617D01*
X159853809Y-75869617D02*
X159901428Y-75679141D01*
X159901428Y-75679141D02*
X159901428Y-75345808D01*
X159901428Y-75345808D02*
X159853809Y-75155332D01*
X159853809Y-75155332D02*
X159758571Y-75060094D01*
X159758571Y-75060094D02*
X159663333Y-75012475D01*
X158806190Y-76012475D02*
X158806190Y-75012475D01*
X158806190Y-75012475D02*
X158234762Y-76012475D01*
X158234762Y-76012475D02*
X158234762Y-75012475D01*
X157282381Y-76012475D02*
X157758571Y-76012475D01*
X157758571Y-76012475D02*
X157758571Y-75012475D01*
X156758571Y-75536284D02*
X156758571Y-76012475D01*
X157091904Y-75012475D02*
X156758571Y-75536284D01*
X156758571Y-75536284D02*
X156425238Y-75012475D01*
X162020476Y-78003371D02*
X162068095Y-77955752D01*
X162068095Y-77955752D02*
X162163333Y-77812895D01*
X162163333Y-77812895D02*
X162210952Y-77717657D01*
X162210952Y-77717657D02*
X162258571Y-77574800D01*
X162258571Y-77574800D02*
X162306190Y-77336704D01*
X162306190Y-77336704D02*
X162306190Y-77146228D01*
X162306190Y-77146228D02*
X162258571Y-76908133D01*
X162258571Y-76908133D02*
X162210952Y-76765276D01*
X162210952Y-76765276D02*
X162163333Y-76670038D01*
X162163333Y-76670038D02*
X162068095Y-76527180D01*
X162068095Y-76527180D02*
X162020476Y-76479561D01*
X161687142Y-77574800D02*
X161544285Y-77622419D01*
X161544285Y-77622419D02*
X161306190Y-77622419D01*
X161306190Y-77622419D02*
X161210952Y-77574800D01*
X161210952Y-77574800D02*
X161163333Y-77527180D01*
X161163333Y-77527180D02*
X161115714Y-77431942D01*
X161115714Y-77431942D02*
X161115714Y-77336704D01*
X161115714Y-77336704D02*
X161163333Y-77241466D01*
X161163333Y-77241466D02*
X161210952Y-77193847D01*
X161210952Y-77193847D02*
X161306190Y-77146228D01*
X161306190Y-77146228D02*
X161496666Y-77098609D01*
X161496666Y-77098609D02*
X161591904Y-77050990D01*
X161591904Y-77050990D02*
X161639523Y-77003371D01*
X161639523Y-77003371D02*
X161687142Y-76908133D01*
X161687142Y-76908133D02*
X161687142Y-76812895D01*
X161687142Y-76812895D02*
X161639523Y-76717657D01*
X161639523Y-76717657D02*
X161591904Y-76670038D01*
X161591904Y-76670038D02*
X161496666Y-76622419D01*
X161496666Y-76622419D02*
X161258571Y-76622419D01*
X161258571Y-76622419D02*
X161115714Y-76670038D01*
X160687142Y-77622419D02*
X160687142Y-76622419D01*
X160687142Y-76622419D02*
X160353809Y-77336704D01*
X160353809Y-77336704D02*
X160020476Y-76622419D01*
X160020476Y-76622419D02*
X160020476Y-77622419D01*
X159544285Y-77622419D02*
X159544285Y-76622419D01*
X159544285Y-76622419D02*
X159306190Y-76622419D01*
X159306190Y-76622419D02*
X159163333Y-76670038D01*
X159163333Y-76670038D02*
X159068095Y-76765276D01*
X159068095Y-76765276D02*
X159020476Y-76860514D01*
X159020476Y-76860514D02*
X158972857Y-77050990D01*
X158972857Y-77050990D02*
X158972857Y-77193847D01*
X158972857Y-77193847D02*
X159020476Y-77384323D01*
X159020476Y-77384323D02*
X159068095Y-77479561D01*
X159068095Y-77479561D02*
X159163333Y-77574800D01*
X159163333Y-77574800D02*
X159306190Y-77622419D01*
X159306190Y-77622419D02*
X159544285Y-77622419D01*
X158639523Y-78003371D02*
X158591904Y-77955752D01*
X158591904Y-77955752D02*
X158496666Y-77812895D01*
X158496666Y-77812895D02*
X158449047Y-77717657D01*
X158449047Y-77717657D02*
X158401428Y-77574800D01*
X158401428Y-77574800D02*
X158353809Y-77336704D01*
X158353809Y-77336704D02*
X158353809Y-77146228D01*
X158353809Y-77146228D02*
X158401428Y-76908133D01*
X158401428Y-76908133D02*
X158449047Y-76765276D01*
X158449047Y-76765276D02*
X158496666Y-76670038D01*
X158496666Y-76670038D02*
X158591904Y-76527180D01*
X158591904Y-76527180D02*
X158639523Y-76479561D01*
X161420476Y-101302419D02*
X161753809Y-100826228D01*
X161991904Y-101302419D02*
X161991904Y-100302419D01*
X161991904Y-100302419D02*
X161610952Y-100302419D01*
X161610952Y-100302419D02*
X161515714Y-100350038D01*
X161515714Y-100350038D02*
X161468095Y-100397657D01*
X161468095Y-100397657D02*
X161420476Y-100492895D01*
X161420476Y-100492895D02*
X161420476Y-100635752D01*
X161420476Y-100635752D02*
X161468095Y-100730990D01*
X161468095Y-100730990D02*
X161515714Y-100778609D01*
X161515714Y-100778609D02*
X161610952Y-100826228D01*
X161610952Y-100826228D02*
X161991904Y-100826228D01*
X158060476Y-101362419D02*
X158393809Y-100886228D01*
X158631904Y-101362419D02*
X158631904Y-100362419D01*
X158631904Y-100362419D02*
X158250952Y-100362419D01*
X158250952Y-100362419D02*
X158155714Y-100410038D01*
X158155714Y-100410038D02*
X158108095Y-100457657D01*
X158108095Y-100457657D02*
X158060476Y-100552895D01*
X158060476Y-100552895D02*
X158060476Y-100695752D01*
X158060476Y-100695752D02*
X158108095Y-100790990D01*
X158108095Y-100790990D02*
X158155714Y-100838609D01*
X158155714Y-100838609D02*
X158250952Y-100886228D01*
X158250952Y-100886228D02*
X158631904Y-100886228D01*
X155520476Y-101362419D02*
X155996666Y-101362419D01*
X155996666Y-101362419D02*
X155996666Y-100362419D01*
X161420476Y-89032419D02*
X161753809Y-88556228D01*
X161991904Y-89032419D02*
X161991904Y-88032419D01*
X161991904Y-88032419D02*
X161610952Y-88032419D01*
X161610952Y-88032419D02*
X161515714Y-88080038D01*
X161515714Y-88080038D02*
X161468095Y-88127657D01*
X161468095Y-88127657D02*
X161420476Y-88222895D01*
X161420476Y-88222895D02*
X161420476Y-88365752D01*
X161420476Y-88365752D02*
X161468095Y-88460990D01*
X161468095Y-88460990D02*
X161515714Y-88508609D01*
X161515714Y-88508609D02*
X161610952Y-88556228D01*
X161610952Y-88556228D02*
X161991904Y-88556228D01*
X163700476Y-101312419D02*
X164176666Y-101312419D01*
X164176666Y-101312419D02*
X164176666Y-100312419D01*
M02*
