%TF.GenerationSoftware,KiCad,Pcbnew,8.0.3+1*%
%TF.CreationDate,2024-06-24T22:52:21-04:00*%
%TF.ProjectId,RP2040_ZERO_REV,52503230-3430-45f5-9a45-524f5f524556,rev?*%
%TF.SameCoordinates,Original*%
%TF.FileFunction,Legend,Top*%
%TF.FilePolarity,Positive*%
%FSLAX46Y46*%
G04 Gerber Fmt 4.6, Leading zero omitted, Abs format (unit mm)*
G04 Created by KiCad (PCBNEW 8.0.3+1) date 2024-06-24 22:52:21*
%MOMM*%
%LPD*%
G01*
G04 APERTURE LIST*
%ADD10C,0.100000*%
G04 APERTURE END LIST*
D10*
X155545312Y-97502419D02*
X155211979Y-97026228D01*
X154973884Y-97502419D02*
X154973884Y-96502419D01*
X154973884Y-96502419D02*
X155354836Y-96502419D01*
X155354836Y-96502419D02*
X155450074Y-96550038D01*
X155450074Y-96550038D02*
X155497693Y-96597657D01*
X155497693Y-96597657D02*
X155545312Y-96692895D01*
X155545312Y-96692895D02*
X155545312Y-96835752D01*
X155545312Y-96835752D02*
X155497693Y-96930990D01*
X155497693Y-96930990D02*
X155450074Y-96978609D01*
X155450074Y-96978609D02*
X155354836Y-97026228D01*
X155354836Y-97026228D02*
X154973884Y-97026228D01*
X155973884Y-97502419D02*
X155973884Y-96502419D01*
X155973884Y-96502419D02*
X156354836Y-96502419D01*
X156354836Y-96502419D02*
X156450074Y-96550038D01*
X156450074Y-96550038D02*
X156497693Y-96597657D01*
X156497693Y-96597657D02*
X156545312Y-96692895D01*
X156545312Y-96692895D02*
X156545312Y-96835752D01*
X156545312Y-96835752D02*
X156497693Y-96930990D01*
X156497693Y-96930990D02*
X156450074Y-96978609D01*
X156450074Y-96978609D02*
X156354836Y-97026228D01*
X156354836Y-97026228D02*
X155973884Y-97026228D01*
X156926265Y-96597657D02*
X156973884Y-96550038D01*
X156973884Y-96550038D02*
X157069122Y-96502419D01*
X157069122Y-96502419D02*
X157307217Y-96502419D01*
X157307217Y-96502419D02*
X157402455Y-96550038D01*
X157402455Y-96550038D02*
X157450074Y-96597657D01*
X157450074Y-96597657D02*
X157497693Y-96692895D01*
X157497693Y-96692895D02*
X157497693Y-96788133D01*
X157497693Y-96788133D02*
X157450074Y-96930990D01*
X157450074Y-96930990D02*
X156878646Y-97502419D01*
X156878646Y-97502419D02*
X157497693Y-97502419D01*
X158116741Y-96502419D02*
X158211979Y-96502419D01*
X158211979Y-96502419D02*
X158307217Y-96550038D01*
X158307217Y-96550038D02*
X158354836Y-96597657D01*
X158354836Y-96597657D02*
X158402455Y-96692895D01*
X158402455Y-96692895D02*
X158450074Y-96883371D01*
X158450074Y-96883371D02*
X158450074Y-97121466D01*
X158450074Y-97121466D02*
X158402455Y-97311942D01*
X158402455Y-97311942D02*
X158354836Y-97407180D01*
X158354836Y-97407180D02*
X158307217Y-97454800D01*
X158307217Y-97454800D02*
X158211979Y-97502419D01*
X158211979Y-97502419D02*
X158116741Y-97502419D01*
X158116741Y-97502419D02*
X158021503Y-97454800D01*
X158021503Y-97454800D02*
X157973884Y-97407180D01*
X157973884Y-97407180D02*
X157926265Y-97311942D01*
X157926265Y-97311942D02*
X157878646Y-97121466D01*
X157878646Y-97121466D02*
X157878646Y-96883371D01*
X157878646Y-96883371D02*
X157926265Y-96692895D01*
X157926265Y-96692895D02*
X157973884Y-96597657D01*
X157973884Y-96597657D02*
X158021503Y-96550038D01*
X158021503Y-96550038D02*
X158116741Y-96502419D01*
X159307217Y-96835752D02*
X159307217Y-97502419D01*
X159069122Y-96454800D02*
X158831027Y-97169085D01*
X158831027Y-97169085D02*
X159450074Y-97169085D01*
X160021503Y-96502419D02*
X160116741Y-96502419D01*
X160116741Y-96502419D02*
X160211979Y-96550038D01*
X160211979Y-96550038D02*
X160259598Y-96597657D01*
X160259598Y-96597657D02*
X160307217Y-96692895D01*
X160307217Y-96692895D02*
X160354836Y-96883371D01*
X160354836Y-96883371D02*
X160354836Y-97121466D01*
X160354836Y-97121466D02*
X160307217Y-97311942D01*
X160307217Y-97311942D02*
X160259598Y-97407180D01*
X160259598Y-97407180D02*
X160211979Y-97454800D01*
X160211979Y-97454800D02*
X160116741Y-97502419D01*
X160116741Y-97502419D02*
X160021503Y-97502419D01*
X160021503Y-97502419D02*
X159926265Y-97454800D01*
X159926265Y-97454800D02*
X159878646Y-97407180D01*
X159878646Y-97407180D02*
X159831027Y-97311942D01*
X159831027Y-97311942D02*
X159783408Y-97121466D01*
X159783408Y-97121466D02*
X159783408Y-96883371D01*
X159783408Y-96883371D02*
X159831027Y-96692895D01*
X159831027Y-96692895D02*
X159878646Y-96597657D01*
X159878646Y-96597657D02*
X159926265Y-96550038D01*
X159926265Y-96550038D02*
X160021503Y-96502419D01*
X160783408Y-97121466D02*
X161545313Y-97121466D01*
X161926265Y-96502419D02*
X162592931Y-96502419D01*
X162592931Y-96502419D02*
X161926265Y-97502419D01*
X161926265Y-97502419D02*
X162592931Y-97502419D01*
X162973884Y-96978609D02*
X163307217Y-96978609D01*
X163450074Y-97502419D02*
X162973884Y-97502419D01*
X162973884Y-97502419D02*
X162973884Y-96502419D01*
X162973884Y-96502419D02*
X163450074Y-96502419D01*
X164450074Y-97502419D02*
X164116741Y-97026228D01*
X163878646Y-97502419D02*
X163878646Y-96502419D01*
X163878646Y-96502419D02*
X164259598Y-96502419D01*
X164259598Y-96502419D02*
X164354836Y-96550038D01*
X164354836Y-96550038D02*
X164402455Y-96597657D01*
X164402455Y-96597657D02*
X164450074Y-96692895D01*
X164450074Y-96692895D02*
X164450074Y-96835752D01*
X164450074Y-96835752D02*
X164402455Y-96930990D01*
X164402455Y-96930990D02*
X164354836Y-96978609D01*
X164354836Y-96978609D02*
X164259598Y-97026228D01*
X164259598Y-97026228D02*
X163878646Y-97026228D01*
X165069122Y-96502419D02*
X165259598Y-96502419D01*
X165259598Y-96502419D02*
X165354836Y-96550038D01*
X165354836Y-96550038D02*
X165450074Y-96645276D01*
X165450074Y-96645276D02*
X165497693Y-96835752D01*
X165497693Y-96835752D02*
X165497693Y-97169085D01*
X165497693Y-97169085D02*
X165450074Y-97359561D01*
X165450074Y-97359561D02*
X165354836Y-97454800D01*
X165354836Y-97454800D02*
X165259598Y-97502419D01*
X165259598Y-97502419D02*
X165069122Y-97502419D01*
X165069122Y-97502419D02*
X164973884Y-97454800D01*
X164973884Y-97454800D02*
X164878646Y-97359561D01*
X164878646Y-97359561D02*
X164831027Y-97169085D01*
X164831027Y-97169085D02*
X164831027Y-96835752D01*
X164831027Y-96835752D02*
X164878646Y-96645276D01*
X164878646Y-96645276D02*
X164973884Y-96550038D01*
X164973884Y-96550038D02*
X165069122Y-96502419D01*
X156004286Y-73402475D02*
X156004286Y-74211998D01*
X156004286Y-74211998D02*
X156051905Y-74307236D01*
X156051905Y-74307236D02*
X156099524Y-74354856D01*
X156099524Y-74354856D02*
X156194762Y-74402475D01*
X156194762Y-74402475D02*
X156385238Y-74402475D01*
X156385238Y-74402475D02*
X156480476Y-74354856D01*
X156480476Y-74354856D02*
X156528095Y-74307236D01*
X156528095Y-74307236D02*
X156575714Y-74211998D01*
X156575714Y-74211998D02*
X156575714Y-73402475D01*
X157004286Y-74354856D02*
X157147143Y-74402475D01*
X157147143Y-74402475D02*
X157385238Y-74402475D01*
X157385238Y-74402475D02*
X157480476Y-74354856D01*
X157480476Y-74354856D02*
X157528095Y-74307236D01*
X157528095Y-74307236D02*
X157575714Y-74211998D01*
X157575714Y-74211998D02*
X157575714Y-74116760D01*
X157575714Y-74116760D02*
X157528095Y-74021522D01*
X157528095Y-74021522D02*
X157480476Y-73973903D01*
X157480476Y-73973903D02*
X157385238Y-73926284D01*
X157385238Y-73926284D02*
X157194762Y-73878665D01*
X157194762Y-73878665D02*
X157099524Y-73831046D01*
X157099524Y-73831046D02*
X157051905Y-73783427D01*
X157051905Y-73783427D02*
X157004286Y-73688189D01*
X157004286Y-73688189D02*
X157004286Y-73592951D01*
X157004286Y-73592951D02*
X157051905Y-73497713D01*
X157051905Y-73497713D02*
X157099524Y-73450094D01*
X157099524Y-73450094D02*
X157194762Y-73402475D01*
X157194762Y-73402475D02*
X157432857Y-73402475D01*
X157432857Y-73402475D02*
X157575714Y-73450094D01*
X158337619Y-73878665D02*
X158480476Y-73926284D01*
X158480476Y-73926284D02*
X158528095Y-73973903D01*
X158528095Y-73973903D02*
X158575714Y-74069141D01*
X158575714Y-74069141D02*
X158575714Y-74211998D01*
X158575714Y-74211998D02*
X158528095Y-74307236D01*
X158528095Y-74307236D02*
X158480476Y-74354856D01*
X158480476Y-74354856D02*
X158385238Y-74402475D01*
X158385238Y-74402475D02*
X158004286Y-74402475D01*
X158004286Y-74402475D02*
X158004286Y-73402475D01*
X158004286Y-73402475D02*
X158337619Y-73402475D01*
X158337619Y-73402475D02*
X158432857Y-73450094D01*
X158432857Y-73450094D02*
X158480476Y-73497713D01*
X158480476Y-73497713D02*
X158528095Y-73592951D01*
X158528095Y-73592951D02*
X158528095Y-73688189D01*
X158528095Y-73688189D02*
X158480476Y-73783427D01*
X158480476Y-73783427D02*
X158432857Y-73831046D01*
X158432857Y-73831046D02*
X158337619Y-73878665D01*
X158337619Y-73878665D02*
X158004286Y-73878665D01*
X159766191Y-74402475D02*
X159766191Y-73402475D01*
X159766191Y-73402475D02*
X160147143Y-73402475D01*
X160147143Y-73402475D02*
X160242381Y-73450094D01*
X160242381Y-73450094D02*
X160290000Y-73497713D01*
X160290000Y-73497713D02*
X160337619Y-73592951D01*
X160337619Y-73592951D02*
X160337619Y-73735808D01*
X160337619Y-73735808D02*
X160290000Y-73831046D01*
X160290000Y-73831046D02*
X160242381Y-73878665D01*
X160242381Y-73878665D02*
X160147143Y-73926284D01*
X160147143Y-73926284D02*
X159766191Y-73926284D01*
X160956667Y-73402475D02*
X161147143Y-73402475D01*
X161147143Y-73402475D02*
X161242381Y-73450094D01*
X161242381Y-73450094D02*
X161337619Y-73545332D01*
X161337619Y-73545332D02*
X161385238Y-73735808D01*
X161385238Y-73735808D02*
X161385238Y-74069141D01*
X161385238Y-74069141D02*
X161337619Y-74259617D01*
X161337619Y-74259617D02*
X161242381Y-74354856D01*
X161242381Y-74354856D02*
X161147143Y-74402475D01*
X161147143Y-74402475D02*
X160956667Y-74402475D01*
X160956667Y-74402475D02*
X160861429Y-74354856D01*
X160861429Y-74354856D02*
X160766191Y-74259617D01*
X160766191Y-74259617D02*
X160718572Y-74069141D01*
X160718572Y-74069141D02*
X160718572Y-73735808D01*
X160718572Y-73735808D02*
X160766191Y-73545332D01*
X160766191Y-73545332D02*
X160861429Y-73450094D01*
X160861429Y-73450094D02*
X160956667Y-73402475D01*
X161813810Y-74402475D02*
X161813810Y-73402475D01*
X162290000Y-74402475D02*
X162290000Y-73402475D01*
X162290000Y-73402475D02*
X162861428Y-74402475D01*
X162861428Y-74402475D02*
X162861428Y-73402475D01*
X163194762Y-73402475D02*
X163766190Y-73402475D01*
X163480476Y-74402475D02*
X163480476Y-73402475D01*
X164051905Y-74354856D02*
X164194762Y-74402475D01*
X164194762Y-74402475D02*
X164432857Y-74402475D01*
X164432857Y-74402475D02*
X164528095Y-74354856D01*
X164528095Y-74354856D02*
X164575714Y-74307236D01*
X164575714Y-74307236D02*
X164623333Y-74211998D01*
X164623333Y-74211998D02*
X164623333Y-74116760D01*
X164623333Y-74116760D02*
X164575714Y-74021522D01*
X164575714Y-74021522D02*
X164528095Y-73973903D01*
X164528095Y-73973903D02*
X164432857Y-73926284D01*
X164432857Y-73926284D02*
X164242381Y-73878665D01*
X164242381Y-73878665D02*
X164147143Y-73831046D01*
X164147143Y-73831046D02*
X164099524Y-73783427D01*
X164099524Y-73783427D02*
X164051905Y-73688189D01*
X164051905Y-73688189D02*
X164051905Y-73592951D01*
X164051905Y-73592951D02*
X164099524Y-73497713D01*
X164099524Y-73497713D02*
X164147143Y-73450094D01*
X164147143Y-73450094D02*
X164242381Y-73402475D01*
X164242381Y-73402475D02*
X164480476Y-73402475D01*
X164480476Y-73402475D02*
X164623333Y-73450094D01*
X156956667Y-75012419D02*
X157528095Y-75012419D01*
X157242381Y-76012419D02*
X157242381Y-75012419D01*
X157861429Y-76012419D02*
X157861429Y-75012419D01*
X157861429Y-75488609D02*
X158432857Y-75488609D01*
X158432857Y-76012419D02*
X158432857Y-75012419D01*
X158909048Y-76012419D02*
X158909048Y-75012419D01*
X159337619Y-75964800D02*
X159480476Y-76012419D01*
X159480476Y-76012419D02*
X159718571Y-76012419D01*
X159718571Y-76012419D02*
X159813809Y-75964800D01*
X159813809Y-75964800D02*
X159861428Y-75917180D01*
X159861428Y-75917180D02*
X159909047Y-75821942D01*
X159909047Y-75821942D02*
X159909047Y-75726704D01*
X159909047Y-75726704D02*
X159861428Y-75631466D01*
X159861428Y-75631466D02*
X159813809Y-75583847D01*
X159813809Y-75583847D02*
X159718571Y-75536228D01*
X159718571Y-75536228D02*
X159528095Y-75488609D01*
X159528095Y-75488609D02*
X159432857Y-75440990D01*
X159432857Y-75440990D02*
X159385238Y-75393371D01*
X159385238Y-75393371D02*
X159337619Y-75298133D01*
X159337619Y-75298133D02*
X159337619Y-75202895D01*
X159337619Y-75202895D02*
X159385238Y-75107657D01*
X159385238Y-75107657D02*
X159432857Y-75060038D01*
X159432857Y-75060038D02*
X159528095Y-75012419D01*
X159528095Y-75012419D02*
X159766190Y-75012419D01*
X159766190Y-75012419D02*
X159909047Y-75060038D01*
X161004286Y-75012419D02*
X161242381Y-76012419D01*
X161242381Y-76012419D02*
X161432857Y-75298133D01*
X161432857Y-75298133D02*
X161623333Y-76012419D01*
X161623333Y-76012419D02*
X161861429Y-75012419D01*
X162194762Y-75726704D02*
X162670952Y-75726704D01*
X162099524Y-76012419D02*
X162432857Y-75012419D01*
X162432857Y-75012419D02*
X162766190Y-76012419D01*
X163290000Y-75536228D02*
X163290000Y-76012419D01*
X162956667Y-75012419D02*
X163290000Y-75536228D01*
X163290000Y-75536228D02*
X163623333Y-75012419D01*
M02*
