M48
; DRILL file {KiCad 8.0.3+1} date 2024-06-24T22:52:17-0400
; FORMAT={-:-/ absolute / inch / decimal}
; #@! TF.CreationDate,2024-06-24T22:52:17-04:00
; #@! TF.GenerationSoftware,Kicad,Pcbnew,8.0.3+1
; #@! TF.FileFunction,Plated,1,2,PTH
FMAT,2
INCH
; #@! TA.AperFunction,Plated,PTH,ViaDrill
T1C0.0039
; #@! TA.AperFunction,Plated,PTH,ViaDrill
T2C0.0114
; #@! TA.AperFunction,Plated,PTH,ViaDrill
T3C0.0118
%
G90
G05
T1
X6.2526Y-3.352
X6.2569Y-3.4404
X6.2569Y-3.4805
X6.2661Y-3.2927
X6.3429Y-3.3348
X6.3875Y-3.2458
X6.4065Y-3.2026
X6.4419Y-3.1855
T2
X6.0217Y-3.8124
X6.0297Y-3.9248
X6.0312Y-3.4397
X6.0334Y-3.2269
X6.0406Y-3.0295
X6.0437Y-3.1287
X6.0469Y-3.5291
X6.0509Y-3.6651
X6.0528Y-3.2798
X6.053Y-2.914
X6.0563Y-3.0854
X6.0652Y-3.7424
X6.0768Y-3.5193
X6.0776Y-3.3228
X6.0809Y-2.953
X6.0831Y-3.1843
X6.0846Y-3.8778
X6.0866Y-3.4059
X6.0877Y-3.2478
X6.0884Y-3.9569
X6.0992Y-3.7417
X6.1035Y-2.9783
X6.1142Y-3.0561
X6.1157Y-2.9181
X6.1253Y-3.0857
X6.1476Y-3.7427
X6.1492Y-3.6559
X6.1535Y-3.4618
X6.1695Y-3.8281
X6.1727Y-3.0307
X6.1756Y-3.202
X6.1764Y-3.9244
X6.1791Y-3.7524
X6.1811Y-3.2564
X6.1811Y-3.8913
X6.186Y-3.325
X6.187Y-3.4067
X6.1943Y-3.1632
X6.2087Y-3.9884
X6.2124Y-3.7899
X6.2178Y-3.3906
X6.2551Y-3.7354
X6.2559Y-3.8272
X6.2608Y-3.9514
X6.2673Y-3.8724
X6.2925Y-3.3276
X6.2937Y-3.0835
X6.2957Y-3.5272
X6.303Y-3.3896
X6.31Y-3.7777
X6.3146Y-3.8744
X6.3193Y-3.3622
X6.3213Y-3.4335
X6.3217Y-3.9433
X6.3225Y-3.4641
X6.3276Y-3.8272
X6.3563Y-3.9524
X6.3661Y-3.7303
X6.3937Y-3.5248
X6.3954Y-3.8264
X6.4028Y-3.0598
X6.4134Y-3.289
X6.4138Y-3.3303
X6.4165Y-3.5862
X6.42Y-3.9058
X6.4202Y-3.4886
X6.422Y-3.7594
X6.4242Y-3.8744
X6.4269Y-3.8269
X6.4296Y-3.0061
X6.4346Y-3.3603
X6.437Y-2.9378
X6.4508Y-3.0283
X6.4564Y-3.9466
X6.4602Y-3.4878
X6.4639Y-2.9659
X6.4661Y-3.076
X6.4764Y-3.6276
X6.4857Y-3.4633
X6.4867Y-3.2065
X6.5201Y-2.9311
X6.5252Y-3.9843
X6.5366Y-3.9193
X6.5394Y-3.7815
X6.5398Y-3.2059
X6.5496Y-3.0091
X6.5506Y-3.8127
X6.5673Y-3.4274
T3
X6.1642Y-3.353
X6.1642Y-3.3007
X6.1807Y-3.113
X6.213Y-2.978
X6.2463Y-3.223
X6.2791Y-3.1437
X6.2815Y-3.2272
X6.3955Y-2.955
M30
