%TF.GenerationSoftware,KiCad,Pcbnew,8.0.3+1*%
%TF.CreationDate,2024-06-24T22:52:21-04:00*%
%TF.ProjectId,RP2040_ZERO_REV,52503230-3430-45f5-9a45-524f5f524556,rev?*%
%TF.SameCoordinates,Original*%
%TF.FileFunction,Profile,NP*%
%FSLAX46Y46*%
G04 Gerber Fmt 4.6, Leading zero omitted, Abs format (unit mm)*
G04 Created by KiCad (PCBNEW 8.0.3+1) date 2024-06-24 22:52:21*
%MOMM*%
%LPD*%
G01*
G04 APERTURE LIST*
%TA.AperFunction,Profile*%
%ADD10C,0.050000*%
%TD*%
G04 APERTURE END LIST*
D10*
X152400000Y-89805000D02*
G75*
G02*
X152400000Y-87255000I0J1275000D01*
G01*
X167640000Y-99955000D02*
G75*
G02*
X167640000Y-102505000I0J-1275000D01*
G01*
X167640000Y-89795000D02*
G75*
G02*
X167640000Y-92345000I0J-1275000D01*
G01*
X152400000Y-77105000D02*
G75*
G02*
X152400000Y-74555000I0J1275000D01*
G01*
X152400000Y-99965000D02*
G75*
G02*
X152400000Y-97415000I0J1275000D01*
G01*
X152400000Y-82185000D02*
G75*
G02*
X152400000Y-79635000I0J1275000D01*
G01*
X167640000Y-74565000D02*
G75*
G02*
X167640000Y-77115000I0J-1275000D01*
G01*
X152400000Y-97425000D02*
G75*
G02*
X152400000Y-94875000I0J1275000D01*
G01*
X152400000Y-79645000D02*
G75*
G02*
X152400000Y-77095000I0J1275000D01*
G01*
X167640000Y-72015000D02*
X152400000Y-72015000D01*
X152400000Y-94885000D02*
G75*
G02*
X152400000Y-92335000I0J1275000D01*
G01*
X152400000Y-87265000D02*
G75*
G02*
X152400000Y-84715000I0J1275000D01*
G01*
X152400000Y-102505000D02*
G75*
G02*
X152400000Y-99955000I0J1275000D01*
G01*
X167640000Y-79645000D02*
G75*
G02*
X167640000Y-82195000I0J-1275000D01*
G01*
X167640000Y-84715000D02*
G75*
G02*
X167640000Y-87265000I0J-1275000D01*
G01*
X152400000Y-92345000D02*
G75*
G02*
X152400000Y-89795000I0J1275000D01*
G01*
X167640000Y-97415000D02*
G75*
G02*
X167640000Y-99965000I0J-1275000D01*
G01*
X152400000Y-84725000D02*
G75*
G02*
X152400000Y-82175000I0J1275000D01*
G01*
X167640000Y-92335000D02*
G75*
G02*
X167640000Y-94885000I0J-1275000D01*
G01*
X167640000Y-72015000D02*
G75*
G02*
X167640000Y-74565000I0J-1275000D01*
G01*
X167640000Y-82175000D02*
G75*
G02*
X167640000Y-84725000I0J-1275000D01*
G01*
X152400000Y-102505000D02*
X167640000Y-102505000D01*
X167640000Y-94875000D02*
G75*
G02*
X167640000Y-97425000I0J-1275000D01*
G01*
X167640000Y-87255000D02*
G75*
G02*
X167640000Y-89805000I0J-1275000D01*
G01*
X167640000Y-77095000D02*
G75*
G02*
X167640000Y-79645000I0J-1275000D01*
G01*
X152400000Y-74565000D02*
G75*
G02*
X152400000Y-72015000I0J1275000D01*
G01*
M02*
